<mxfile host="65bd71144e">
    <diagram id="fh7oJK2SL2A_5AyDpzU5" name="Page-1">
        <mxGraphModel dx="1113" dy="505" grid="0" gridSize="10" guides="1" tooltips="1" connect="1" arrows="1" fold="1" page="1" pageScale="1" pageWidth="1654" pageHeight="2336" math="0" shadow="0">
            <root>
                <mxCell id="0"/>
                <mxCell id="1" parent="0"/>
                <mxCell id="3" value="ST7789 screen&lt;br&gt;SPI&lt;br&gt;D8,D9,D10" style="rounded=0;whiteSpace=wrap;html=1;" vertex="1" parent="1">
                    <mxGeometry x="767" y="260" width="120" height="60" as="geometry"/>
                </mxCell>
                <mxCell id="14" style="edgeStyle=none;html=1;entryX=0.5;entryY=0;entryDx=0;entryDy=0;fontSize=12;" edge="1" parent="1" source="4" target="5">
                    <mxGeometry relative="1" as="geometry"/>
                </mxCell>
                <mxCell id="4" value="&lt;span style=&quot;color: rgba(0, 0, 0, 0.8); font-family: &amp;quot;Helvetica Neue&amp;quot;, Helvetica, Arial, 文泉驛正黑, &amp;quot;WenQuanYi Zen Hei&amp;quot;, &amp;quot;Hiragino Sans GB&amp;quot;, &amp;quot;儷黑 Pro&amp;quot;, &amp;quot;LiHei Pro&amp;quot;, &amp;quot;Heiti TC&amp;quot;, 微軟正黑體, &amp;quot;Microsoft JhengHei UI&amp;quot;, &amp;quot;Microsoft JhengHei&amp;quot;, sans-serif; text-align: start; background-color: rgb(255, 255, 255);&quot;&gt;&lt;font style=&quot;font-size: 12px;&quot;&gt;&amp;nbsp;DRV2605L&lt;br&gt;haptic driver&lt;br&gt;I2C&lt;br&gt;D4, D5&lt;br&gt;&lt;/font&gt;&lt;/span&gt;" style="rounded=0;whiteSpace=wrap;html=1;" vertex="1" parent="1">
                    <mxGeometry x="90" y="270" width="120" height="60" as="geometry"/>
                </mxCell>
                <mxCell id="5" value="Switch motor" style="ellipse;whiteSpace=wrap;html=1;fontSize=12;" vertex="1" parent="1">
                    <mxGeometry x="90" y="370" width="120" height="80" as="geometry"/>
                </mxCell>
                <mxCell id="7" value="Piezo&lt;br&gt;Analog&lt;br&gt;A0" style="ellipse;whiteSpace=wrap;html=1;aspect=fixed;fontSize=12;" vertex="1" parent="1">
                    <mxGeometry x="120" y="50" width="80" height="80" as="geometry"/>
                </mxCell>
                <mxCell id="9" value="Battery" style="rounded=0;whiteSpace=wrap;html=1;fontSize=12;" vertex="1" parent="1">
                    <mxGeometry x="410" y="30" width="120" height="60" as="geometry"/>
                </mxCell>
                <mxCell id="10" value="Rotary Encoder with button&lt;br&gt;D1,D2,D3" style="ellipse;whiteSpace=wrap;html=1;aspect=fixed;fontSize=12;" vertex="1" parent="1">
                    <mxGeometry x="110" y="160" width="90" height="90" as="geometry"/>
                </mxCell>
                <mxCell id="15" value="Buzzer&lt;br&gt;D7" style="ellipse;whiteSpace=wrap;html=1;aspect=fixed;fontSize=12;" vertex="1" parent="1">
                    <mxGeometry x="787" y="340" width="80" height="80" as="geometry"/>
                </mxCell>
                <mxCell id="17" value="" style="shape=image;verticalLabelPosition=bottom;labelBackgroundColor=default;verticalAlign=top;aspect=fixed;imageAspect=0;image=data:image/png,iVBORw0KGgoAAAANSUhEUgAAAggAAAEECAYAAABN1syFAAAAAXNSR0IArs4c6QAAIABJREFUeF7sXQd4VEXXfu/2lt30BqRAQu+9SRVEQewNRaoNFBURpaiAgHREQKmiKILtw4Y06YggUgMEEtJISO+bzfa9/z+zSUgluyEhIZnzPDzGvdPuO3PvvPecM+dwPM/zYMIQYAgwBBgCDAGGAEOgGAIcIwhsPTAEGAIMAYYAQ4AhUBoBRhDYmmAIMAQYAgwBhgBDoAwCjCCwRcEQYAg4jACxSF66dAkWiwVNmzaFRqNxuC4ryBBgCNxbCDCCcG/NFxstQ+C2CAwZMgSnTp0qt4xIJMKePXuQnZ2NUaNGwWQylSgXFBQEUv/FF19E+/btwXEcvW61WnHu3DmsX78eP/30E/R6Pf1doVBg4MCBmDRpEgYMGAChUAiz2YzJkydjx44d6Nu3LzZv3gw/P7+ifsjvr732Gry9vXH27Fn8+OOPmDJlym3viYxl3759tD8mDAGGwN1DgBGEu4c164khUOMIkE3577//hlQqhYuLS4n+CEH47bffkJ6ejscee4wSBKIBIL8TycrKgs1mQ8uWLbF7924EBgbS3//66y9KKEg9iUQCf39/iMViJCUlQavV0jaWLVuGCRMmUM3CxIkTsXXrVkowRo8ejXXr1kEul9O2vv32W4wbN44ShGvXrmHnzp2YOnUqvUa0E4VjUKlUkMlk9Pd27drhjz/+YAShxlcP64AhUBIBRhDYimAI1CMECgnCE088gZUrV0IgEBTdHdmwPT09ceDAAUoQyGb/ww8/0A2YbM7Hjh3DW2+9hbS0NEyfPh2ffPIJJQWDBw9GWFgYunTpglWrVqFr166UgBCtwrRp03Do0CF4eHhg7969tK1CgkA6Jpv8okWLqJaA9F+aIJAyOTk5dIyEsBBNRHx8PBYuXEjJBRFCRry8vIo0GvVoutitMATqNAKMINTp6WGDYwg4h0AhQSCb61dffVWCIBS2RLQDhCCQzfvgwYPo3LkzvaTT6ejv+/fvp+YBQiQ2bNiAN954g14nZYlJobhkZGSgW7duiImJwaxZs/DRRx+VIAiFG/z333+PRx99FNu2bSuhQSCagkIxGo1o3bo1bevzzz/Hq6++6tzNs9IMAYZAtSLACEK1wskaYwjULgKFBKFfv37UF6DQj4CMqk2bNnQDroggEM3B8OHDcfr0aTz00EPU34D4I5D/Ev+EM2fOwN3dvcQNEpMCMT8QX4KhQ4dSE8bLL79MTQwBAQFUs0A0DaGhobQM0UQUNzEwglC764X1zhC4HQKMILD1wRCoRwgUEoTybmnOnDn0C7+QIBCnwvnz56NZs2bU9+DLL7/Erl27KKnYtGkTnn32WapRII6NHTp0wPHjx1F8Qyd9EAdGQghI3T59+lDtA/nyJwShV69e1MxBSAfRNJA2CDkgZolCHwRGEOrR4mO3Uu8QYASh3k0pu6GGjEAhQSAOht27dy+hQSB+CU8//XQRQSAq/dKiVCoxZswY6jdA/n799dfxxRdfUEfE8+fPU01CcSFtDBs2DIcPH8Zzzz1HzRovvfRSEUEgfg2ELLz55pvUoZE4OBLnRnKygTgpMoLQkFcru/e6jgAjCHV9htj4GAJOIOCMDwL5+if+A+S0Q0REBGJjY6mT4ZEjR+Dm5kZ7PXHiBPU7IA6EH374IT744IOiUw9E6/Drr7/i+eefp8cbyZFGQhIKnRSJBoHUJ7J06VLqo0DKESFEgREEJyaWFWUI1AICjCDUAuisS4ZATSHgDEEo7qR44cIF6neQnJxMv/aJBoGcciAb+ttvv021CESj8NRTT6F///702CIxORCNAdEMEBJBTkSo1epyCQI5qUCcHckpBnJighGEmloBrF2GQPUhwAhC9WHJWmII1DoCVSUIZODkpAHxESDEgPgiEJ8CIrm5uXTT//PPP+lJh0IhvgrkuCMhDCQAkqurKyUU5WkQSB1Sd8SIEVRDwUwMtb5U2AAYApUiwAhCpRCxAgyBewcB4ix448YNGgmROBgWP8VQeBeRkZF0QycBkoi/AfmaJ5KXl4dvvvkGKSkp9NQBcVIkjoxEiK8BMRccPXoU4eHh1KmRhFru3bs3yIkJQg6IELMFOclANBKNGzemZKG4kLo///wz1UAQjQIhI4VCTkSsXbuWBksiRILEW2DCEGAI1B4CjCDUHvasZ4YAQ4AhwBBgCNRZBBhBqLNTwwbGEGAIMAQYAgyB2kOAEYTaw571zBBgCDAEGAIMgTqLACMIdXZq2MAYAgwBhgBDgCFQewgwglB72LOeGQIMAYYAQ4AhUGcRYAShzk4NGxhDgCHAEGAIMARqDwFGEGoPe9YzQ4AhwBBgCDAE6iwCjCDU2alhA2MIMAQYAgwBhkDtIcAIQu1hz3pmCDAEGAIMAYZAnUWAEYQ6OzVsYAwBhgBDgCHAEKg9BBhBqD3sWc8MAYYAQ4AhwBCoswgwglBnp4YNjCHAEGAIMAQYArWHACMItYc965khwBBgCDAEGAJ1FgFGEOrs1LCBMQQYAgwBhgBDoPYQYASh9rBnPTMEGAIMAYYAQ6DOIsAIQp2dGjYwhgBDgCHAEGAI1B4CjCDUHvasZ4YAQ4AhwBBgCNRZBBhBqLNTwwbGEGAIMAQYAgyB2kOAEYTaw571zBBgCDAEGAIMgTqLACMIdXZq2MAYAgwBhgBDgCFQewgwglB72LOeGQIMAYYAQ4AhUGcRYAShzk4NGxhDgCHAEGAIMARqDwFGEGoPe9YzQ4AhwBBgCDAE6iwCjCDU2alhA2MIMAQYAgwBhkDtIcAIQu1hz3pmCDAEGAIMAYZAnUWAEYQ6OzVsYAyBsgjwPI88bS7y8/PpRaPJWC9gIvclEomgkCvgotbQv5kwBBgCtYsAIwi1iz/rnSHgFAJZmRnIy8uDVCYDx3FO1b0XClutVui0WgQGN2Uk4V6YMDbGeo0AIwj1enrZzdUnBCwWM2KiouDm4VGfbqvMvVjMZshkMri6udfr+2Q3xxCo6wgwglDXZ4iNjyFQgIA2Nxe52hxIpbJ6jQkxN/A2G7x9fOv1fbKbYwjUdQQYQajrM8TGxxAoQCAjIx0WiwVCobDeY2IyGuHfqHG9v092gwyBuowAIwh1eXbY2BgCxRBIT0+F1WprEATBaNCjUeMANv8MAYZALSLACEItgs+6Zgg4gwAjCM6gxcoyBBgCd4oAIwh3iiCrzxC4SwgwgnCXgGbdMAQYAhQBRhDYQmAI3CMIMIJwj0wUGyZDoJ4gwAhCPZlIdhv1HwFGEOr/HLM7ZAjUJQQYQahLs8HGwhC4DQKMILDlwRBgCNxNBBhBuJtos74YAneAACMIdwAeq8oQYAg4jQAjCE5DxiowBGoHAUYQagd31itDoKEiwAhCQ515dt/VjoDNZoPRaIRer4fJZKJBjapT8nJzaJjl+h8oiUdGWjqULurqhA8CgQASiQRSqRRyuZziWB/zWVQraKyxBo0AIwgNevrZzVcHAmazGRcvXsSBgwcRfiUcubm5MBiNIImHqlOa+Pti/sKF9Z4gkFDLP+zYjt//3Fud8FEyIJGIoVQo4efnh/4D+qN3r17w8PBgRKFakWaN1RcEGEGoLzPJ7uOuI0BSLp8+fRobN21GeHh4jfffLCgAq9eubRAEYeuWL/HdDz/XOKYuLi4YM+ZFDBkyBI38/RlRqHHEWQf3EgKMINxLs8XGWmcQiIiIwIqVnyIsLAwGg+GujIsRhJqBmZge/P39MX78ODz04IMQi8U10xFrlSFwjyHACMI9NmFsuLWLADEbnDx5EouXLMXNmzfv6mAYQahhuDlg1HPP4dVXXoFSqazhzljzDIG6jwAjCHV/jtgI6xACR44cwZy586ifQXUKdXC0WKljo0gohFQsok51xYURBMBqs8FktsBitUFMcJKIqtUsIBKJMGjQIMyd8xF1aGTCEGjICDCC0JBnn927wwgQx7nz58/j/RkzkZ6e7nA9RwrmG4zI0xtgs/FFxYlDnVImhVIuLdoAGzJBsPE88vVGEKzI34Ui4DioFHLIZRJwjoDtQBmC/QvPP4/XX58MQhiYMAQaKgKMIDTUmWf37RQCqampeH3KFERdj3KqXmWFyYan1elxa8srWUMhk0KtlNMfGypBINgQjAhW5QnZ0AlGcmn1ffHLZDIsW7oEvXr1qmwK2XWGQL1FgBGEeju17MaqE4FNmzZjw8aNTh1dJBtX+7ZtEBgYCJvViutRUYi4HgViTiBC1OWZOXn0vxUJxwHuaheIRcIGSxAsVivFqbjmoDReRJPg4eoCYYFZpnXrlghtFgKz2YSLYZeQcDPR6eXg4+ODzZs20iORTBgCDREBRhAa4qyze3YKgbS0NIx6/gVkZmY6VU8g4DDuxdHYv38/TGYr+vbuhVP//Yf4BLtzo0KhQN/evSERiUBMGIQ4EDMDzxf8FzZYzRacPHOGnpRoqBoEtVqD/n17g7fxsPE28NaC//I8eIIZMT8YDDj+z0kIBXZDw/ixL+LCufNISknG8GEPYMs334EQDWfljdcnY+zYsc5WY+UZAvUCAUYQ6sU0spuoKQTIxr1+/QZs2ryZbuLOCCUIo1/Adzu+h95oQqf27WiUxauR12kzXl7eeGfKG7f1mCdOi5+tXYuYuLgGSxAaNW6M96dOvS30JHLlgsWLkZmVVUQQDh48hBsJN/HCs09hx4//g8lsdmb6aNl27driy82byziMOt0Qq8AQuAcRYAThHpw0NuS7h0BeXh4mTHwJ16/bN3VnhBCE8S+OxpHDh2Gx2dD/vr74Y88+pGfYNRF2gjAFSqWiqFmiRSCmicIQwIwgAI0aNcb779wiCISokX/ErADyD4DJaMT8xUuQlV1IEMZAp9NCIZMhJSUVf+77y5mpKypLQjJv/forNG3atEr1WSWGwL2MACMI9/LssbHXOAJR0dF49dVXkZlp33icEUIQXho3Ftk5OfDy8sJ/p0/j5H9ni5rw9vbG1DfsBIFseLv27MXu/X+hf5/eePqJx2k5QhBWrV2L2IasQShGEEgcii3fbEPY5csYMnggHhwyhEaWJDkwiAYhKzub4kZMDOFhYUjPykLfvn1w4OBhqk1wVghRe33yJGZmcBY4Vr5eIMAIQr2YRnYTNYXAPydP4p13ptENyFkpbmIgvgXPj3oW27Z/D6PJRJuiBIFoEBQKmC0WvDNjFpJS06CUy/HVurVFBOHTNWsQd+NGwzUxFCMI5DTJG9NnUL+D4MAAzHl/OvXlIPMzf9FiZOfcIgjExBB7Ix69e/WESi7DvoOHnZ1CWr5z587YuGF9leqySgyBexkBRhDu5dljY69xBE4e/wNrPv2IOsNVJlYbhzydEGm5gMUKEIIw9oUX8N3338NgNKFfn15ISklB5PVo2pSPtw/eJj4ICrsG4fuf/4eDR4+he5fOmDjmRUYQCnIxFDcxEI3Kpq+24tylS7i/fz88PvJhuwbBYMD8xYQg5BRpEPS6PGRkZFLtzZ979iIrJ5fGSlDKOKhkgFjMw2LlwFcytRo3N2z7YU+1BmSqbC2x6wyBuoBAwyAI5OXunH9Z9c0NsZEWeFaTIRAbs7PObtUxGA4cOAFnt9sSoR7gVlT6dqyOzstpgxMIAfKPDAXEK91aK7iQ/gWcEAKuZNTCwiHrY9cCScsdRoGQhOQMCZZuV+J8NAeRSEozOxIRCgUQCQQwmu1poMkxurffsBOEQiEqdBJBsbgPAtMglPVBIM9RcZwIQfh48WLkFBAEqUQCjYuSHiHNzs2jx0zVSh7PDbTh8QFaSEXE18Ox1wLPKSDpfApS2a15KpowiwV8FU5HOLygblOQEwoBFsipOqBkbVSAQL0nCJYbyTBFJQDFotTdzdUgUMkh7dKS7A64eO0GrlxPgJl8Xt5lIcTAVa3E4F5tadQ53emdyL9yFLxZf5dHYu9O4tcc6kEvATIFwlL2IzrrDCw2u+r9bou3Mhj3BY6mRKG05MesAZe8wukh6Y0C/H5Cic1/SqCrIJeTbwFBICryioR8MX+6ejXi4uOZieE2s0COgc5ftAg5FYTA7hrKY8qTeQj2MxX6NTo8p4QgCDqcgkxeMj+D+cJF6Fatgc3J468Od3y7goTsazRQTpsKcZvW1dIka4QhUBqB+k0QrDbkHz4Da4pz59ere5koBneDxc0F63fsR462djbkwnt66sFeaBnsi+TVz8Oc7LxnfnVhI5Cp4PXSOlg8fbEjbBayDUnV1bTT7YgFMjzXfiE8FYFFda08cENrRlz0z3DP/QoBogRIufwK2ubASfwAsRtg0YI33QR4K8wWDst3qPHHqfLD9ZKEQH179YZUWhAmmCMaHgGIHpw66IOjGqeDR47Qja+hxkFwcVFjwH33FWFCNGFED0a1LERBBwH16/hz3z5YrXbtTHFp4gWsm5oDjYpc4wCRBpzIA7AZwZtTAL7i448mzg1GUSNIW26HRlWSIOROn4n8LV85vd6qs4Jq+jSo3r39EdDq7I+11bAQqOcEwYr8Q2dgTXXeA706l4FiQBdYPDX4/Lv9yNOVJAhE7Uzj7YODzmCExWKlX/jSgpSzRrMZeoOJ2rOlEjH9m7wcpVIxZBIJdW7LL7juopDTYDC6fEOFFpXHh/ZAm2a+SP5sFMypMU7dpkDpCt6YD95S8KUvEEDo4gnYrLDmZVKzhaPCSZXwJgTBq5AgJDtUVSSQQCl2pWWJaSLfnA2Lzf6CFwpE9JrZZoTenEdLOCJigRTPtl0AL1VwUfEdEblYHpaFFIMVSoEVw5V/Y6bncsg5XckmOQGE3qMh9p8ITuYP3pQOa9Z+mGPmAbwJ8alijF6ogYUwjlJCEg5lEvX3bSMpcnBXqxp8JMWMnLzbmqDI8+GpcSkTr4BY995+So/H7rOTO07RBpKmC8DJmwJWHayZu2GOWwzwZZ1QIy09sDz7ZaRzTeAhU2BKW3d08ZUV5XzIeftd6L/d5sgSs/ctl0Pg6Uk5Cswm8BYzbNk5gNmuUeTkMnAqBWzp5FlyrFnV1DehmvGeY4VZKYaAkwjUc4JggyUxjcS0hUAph01LXgi5MMclQRzkB6GXO7XDm2MSYU3OhMjfE5xMAnOU/TiUpHUwiInCZjDRa6LG3uA4Af3Nkp4NaZtgGM9FgLfaIHR1gaixF2zafIiC/WFJSIX5egJtpyKCQIjBoB5tIJaIaAQ94sh26NQV9O3SHELSj9UGf283nA6LQmpmDnp2CMWe4xfRJqQx2oY2Qb7RCLlUjMi4FFyNuomeHUPRyMcDO3b9XaEZo6oEQaDUwGvsp8i/uA/a4zvol5jLfaMg8W8BjtjZr59E3qlfHPZpqCpBaObWFb2bPINrGSfgqQwC8Rw4Ef89tMZMDGo6kX5VykVq/Jf4C+JzLjv0OJQmCDfzzBj0ewL0xcxSSoEF6/wWo7v0UIk2BYo2kLb7HyAQ3/rdZoTx6iuw5RyF2cphyqeeCIst3xOOJGm6HaFTyCRQF8RJaKgaBMI7c3X5NNhUeULm3EUhA8lbUVokYuDzN/PQMtAITqSBpM0PEChCbxXjzTBFToM14/cSVZOsTTEqcSUSzbe0Bl4SAf73gD8C1facD84SBNkzIyEd2AuWiHDY0lIgDAyFJeEGDF//BnACqN6bBGtSEvRf/89hss0IgkOPOCtURQTqOUGwQn/0PCUGsu6toT92gfoiSDqEwJqWDWtaFoijj6RlICw308DJpOAUUpiu2L+sZZ1bwHQ9ASJfD0ocyN/kK1mgkIHXGyHt2hKGE2HgLVYIPTUQB/vDcPYaJKFNqM+B6bLdW70igjCge2ukpGfjakwS/ToimgOj0Yz+3VrhWmwSElOz4OqiQP8ebXDs9BX0aB+Co/+FY2CPtth/4iKMJgskYhHu79UW567EwGLjMey+jtVPEEjGvB6PQejiAbFPCLJ+WwJwQriNeAcZP3wITiyFz6ubkPbl67Bkpzq0FO+EILTw6ovdEatoP43UrdHRdyglAxqZL47f2AYPeRN0b/QY9katKdIu3G5QpQnC/rg8TDyeWuIjjnz0feC5Ec+rvy/RlNDjIUiar7arrouJOfpDWFK+pW0s+MYFe/4tP5EQmXey8WmJ1qeYBoZmc5RLaUbHQofFqhAEYpvPLogN4MjEqNVqemywMjEaTcjKctx05+LictuIkcX7Izhs3fIlvis4xUCukWONhEgRUlxcUUWwIUcYCZEqxKl4W0oZsOW9bPh7WiGQt4a0IyECJefKkrwD5piZJW75QP6DmJLyNiz8LedVoo1Y2dMbjzVVVYkgKF4bBVhNMJ++CMvVWAgC/eH21UZkDn+C3pPLwhnQTpsHPs9xMyQjCJWtVHb9ThCo9wSBmBhsuTrIe7ZF/uGz4CQiyHq2g+FkGHiT3V4p9PWAqIk3bGnZ4BSykgQh+iYkzQPoZm8r5m3GyaWQ924PS2wi1SAIXBRURWj49zLEoU3AScS3JQhEJfrk0B5UY5CWlUvHERLgg5spWejVKZQmp8nIzkOzJt4wWawIv34TPTuE4MLVODQP9sfhf6/QOuRV16dzC2Tl5iE1U1sjBIH4C7g9Mg3Z+9ZD0WYg0eXDFHseqh5PI+PHj8AJRPB+ZQOyfvkEpsQIh9ZjdRAEYmIgJoVhoW9QH4YM/U2cT9oNF4kHHgiZhN8jlsNoqchv4NYwSxOE+Fwzhu1OgNZyS8+rEFjxud9K9JLuKXF/ApcekLb5BuCK+RnwFpgi3oI18096jG76F+7499rtYSGnF/KNxFRC+uSoZkhEvNSLSVUIQmZGJiIiIh2aE1IoODgIPr4+lZbPyc5FeHh4peUKCwQGBsDP37GkR+URhMJ2iIOvwWSyR1IUCGgGx8IETeUNRi7hseldLQJ9zeAkjSDt8Cc4kUuxojzMcStgSbTHnSiUI/n3Y3LKdJhLEYQ1vb0xIqhqBEHSvyekve6DwM8TgsZeyB4/BaqZk2A+cZHYHMC5u0G/5SeHMSUFGUFwCi5W2EkEGhxBAHmp9GkPw3/hVAtAhHz5C5QyWHN0EHq6wnjO/jaXdW0F4+VoSNs0hTk2EdZ0+xlr4i1FNAryHm1gOHuVHnoXuKkh8veC4fQVhwgCaaZb26b0y+jslVj6whvevxP+OR+Jjq0CkaczgNhdzWYLElOzoVJK0atDKA6evIxh/Tpi7/ELMBjNkEpEtN7+v8Mgk0lqhCBIm3WBS++nYLoZDk4sg8S3BbJ3r4Jm6CRk/DAXArkKXhM+R+q68bDl28lOZVIdBIH00cqrHxqr2yA2+xyCXDviQPRG+KiaoZ33YOyPXk+PT1YmpQkC2aK/vZqDhRcyobPwEHLASM0lfOg+FwqU8mcRyCAOnA2RzzNUqwKSYCnzCEzXpwLWHGRkizFqvho65+MslRk2IwiVzWTZ60IBsGBCPvq219P5EfpOhCTwnSJCZ9NHwxQ+AbwxrkTlLKsPnkn8FHFmr6LfmyrF2H6/H/xUdjLorIlB4OkCW0YeOI0Mngf3I/PJZ8EbDXCZ/x44lQbaGfNhvX7DqZtkBMEpuFhhJxFoMARB1rMt9IftYW6JtkDo40GdFwUSIQSebjCejwAnFEDarTUscckkyg2E7i4wnA6HwF0NaatgWJLSqImCaA8sN1Ig7dwchn8u2U0MHgUmhv/C7QRBLCrSRFRkYiApfPt2aQGZVEKdC8lRxGP/XUX7FgGISUhDSkYBIQGgVskpcTj23zUENfJCu+ZN7ARBLEJEXBKuxSTBXaNCv26t8MehsxVmrnPaB4HjoBn6KvLP7YY5NZbip+zyECyZiRBqfCBt0hYQSWC4egz68L8ddgysKkEI0LRFF/+RuJFzERqpDyUAp2/+Ar05F72aPA2xSAaJQIFzSbuQll/ypV/Rs1Gek6KV53ExzYjLsafhZ/gVXSSHIeUrUKlzIghcB0Ogagc+PxLWrH2ATU9cX7BtnwobdpW1jTv5nNLiVSIImZmIjHD8tEpQcCCNz1CZ5OTk4mr41cqKFV0PCGhSLRoEhzssVnBQRxs+GJMNsYgHODGEbvdDqOkJmykDlvRfAGP5m3KCuRm2ZD+DaHMA/HzaY0o7DwRrbvmaOEsQFFMnQOgVAIh48JkZ0K1cB95ig3rhB+DNRmg/XEz9pZwRRhCcQYuVdRaBBkEQiL8B2dT5/IID6QUaAE5UEKjHaCoyN3BSMTUPEOENJvAFQW1K/G62gDeawckldi0E+eQUCigpIHWIGYNoGUgZIrc7xUBMDeQ0ArEVGE1mWK026ldAHBSLe7cT+6pELKR+B0RIGbFYCKvFBoPJ3g9pi/xOiENF4jRBIO3K1bAZ8oocEDmRmH6NkdMMArkL9cuw6bUOkwMytqoSBKFADKnwlo3caNHBytsxIXEMpCISHMcCk7Vy00IhRuURhMJrVY2DQOr/d1WBOV/JkV3q4EPxuRGLRDQXg4vKpZQNnYdWq0WeLp+eVKkqQTCbzdDlkRMdjolcoYBUWjmhIfEZ8rRkzh0TkvRIKpM5VPh2JgaHGihViDzm4x8w4/kHtBAKHDweUNCGlRfDCFdIOxyASmk3LRSKswQBYhEEajWtbiNZJwucYDlyfJKksS51wsmRe2UEwRGUWJmqItAwCEIdPuZY1Ymrar2qEISq9nW7elUlCDUxltsRBF30WthuVh4oqTAqHzmxmJ4twpELUmzZI0O+8fYbUs/u3TB23DgEBzSBbc0yICkdCPSDaNI0kERRv+78H3YXZCKsigahJvCq6TbLIwiFmRtp9MRiAyBliZnudkdFSXGxEHiinxkjeunh72khPsQ0wClxDqyMMpBASeJOJ8sESnKaINQAcIwg1ACorMkiBOo3QbDZkH/sAqw3HfOsr5F1IRBA+WBPWJUKfLXzMJJT7clkakPIS3bUyL4IbuyF1A0vwRh7oTaGQfsUqDzgPXEdbO5e+PHyHKTq7Cc+akPkYjWeb78Eaukte3PhOI7+9TN2bFlU6bDkUsBgArLzgMRMHnkN1JQ2AAAgAElEQVQGEuSo0mro3bMHxk+YgCB/Xxj79gN/PQvCV0dCtmglJQi//PwTTRFNpKESBEIIBg0cgBbNQxEQ4Ae52B5Ui4cUWVoVbsQl4Nff/0Bm1u2fLUIIyKmGIB/Az4OHQmaD0czBZi15qqH0rImlcsxYsg8ymbzEpbylK5C3dLnDRxIrXw3Ol3CZ9xGUr73ifEVWgyHgAAL1myAQVV6+AZbYpFp7iMnpBlGAL52KjGwtrpGYC7UQ9pm8AkmoZRJDgZgrTPGXYIg+XWu4kPgJsuZ9KC7JedeRkncdBsttdPEOLOaqFvF3aYEmmrblVt+58xfMX7Cgqk1XWq9cgjBmGGSr1laJIJAv6YyM9Nt+UXt5eZcJKFTpQJ0oQPIekFMZFQnRAghvk0OgtAaBrNeXJk5Ar169ENQ4HmrRw+B5Txj4ycjOfwYxMRlYvnwZYm/Y445Ut5Bjn/v37YWslInElpUN/U//A69z3NRSnWMTqFwge/JxCFztgcOYMASqG4F6TxCqGzDWXsNCoKYJQrcunfDCCy+gadOm4P49AD4zjTiYQDDkaURGRuKP337DX4eOUNAd0SAQv4XP162DTlexD8b0ae9ApSppT6/OWT317784eKji1MoBjf3x7DPPVkgSHCEINj4Q+bZF0Oo71BpBqE7MWFsMgbqIACMIdXFW2JjqDAI1TRBIqG2SeVAiJeG2S4rRaKTRNQvt644ShM/WrIVOV7E2ZsZ700ECF9WUHDv+N3bvKRkvonhfQQFNMH78eIgq0CKURxAmjBuLnkSD0EQLF9Gb4KGGmX8EmbrhiIlJwcoVKxAXb4+AWt1SkQahuvth7TEE6hoCjCDUtRlh46lTCNQ0QXDmZhsqQSAYEa2Dh5sr/Bs1LnHKgmhMEhNv4mpk9G3NGs7gXLosIwh3gh6rey8jwAjCvTx7bOw1jgAjCM5DXN0aBOdHUL01GEGoXjxZa/cOAowg3DtzxUZaCwjs3LkTCxYudLxnB47NOd5YyZLBgY2xes0aiMXl53UgpckXdX0wMXy5aSN++PmXqkJVab3bn1soWZ3EhijPSbHSTlgBhsA9jgAjCPf4BLLh1ywCkWe24OLRpQ51QrMO5otwMVKMs1ECFEvd4VD9ygqplAosW7IIwc1CKixaHwiCyWTE/Hkf49R/9sin1SXkmGNjT6BTqI3mZpBJLKXzNpXblUgkx/CXj0EmLz+JVfEkW9U1VkfaKS85lSP1WBmGgKMI1H+CYLbQHAslUsA5ik41lCNRGQUae8rYfIMRmdl5NLDL3RbyxeSilNOjjkRsuixY0uNqCxYINV4QuTWy42LOgc6cA6PF8Yh/1YcfB43UCy5Sz3KbrGokxUtRcnz8jQKJmdW79Hp164J335sOpap8J0NCEFav/fy2TorvT3+3zjopkuOR5878h/kLF0FvqIYEFgWzKhUDzw20YuLDzschIYGSBB1OlQmUlJWVhYMHD+L6dcdDWVfXuiUOns2aNcPAgQOh0Wiqq1nWDkOgBAL1myDYeBjOhMNM0jTXknBiIRRDe8Iil2LLz4eRnplbaeS2mhgqIQgKuRQvPtYPHhoV0rdOhT7yn8rDyNXQYMSegfAa+ymsLhr8enUxEnOvwgYHIgvVwHg85U3wWOsPoJK4lWk9P2YtuOTlDvTK0fDadsZlJ4AJqSLM2qxGVKIzCu3bdyUUCtGlUwf0v68v/P0b0aOCpHWZjKO5PPLzjbh4KRwcrJCIORra32C0kdQikEvtqYubhbSBSCSGVMpBKOBgsfIwmXgSLRxSqYASWIORt7crFdDbMhptsNgAqZiDSESCQBWU4QC5zN4u6YcEh0pMjEVk5DWYzDz9JxZztB4J/6E32ODm6ooB/XqC3IvJbAONZs7zyM3JxrkLF7H/rwPIzau+mBgk8vm0pw0Y2j0fIqFz5NzCi2GABtL2B6EudTT0o48+wscff1wiTbcDC6XaihANwvLly/H2229XW5usIYZAcQTqN0EgKXQPnaFJmWpTSC4Go7sLlm/+ozaHQfuuvlDLhZuecy/cQgDuLNRyiWC7xTAlvzs/nvJCLevMNuyN1eHEjctoZjuDB5W/wJuLBlde+yI3iLxHQaBqC14fDUvqdvDGm3Tj2HtKhfnbKs9tcCcLQyETYP1HgQhqLMEXO9Lw3a5MjB3piQlPeeDfMB2mLU1Aq2AF1s9tQrt5cko0MnMtWP5uY3Rqo8De41os3JiEHm2V+GRqIySmmvD6/HgIhRw2fRwId40Q7y6+iX8v5+HdcX4YMVCN63EmvDI3DiqFADuWBdN231p0E9EJBiyf3hjtm8ux+YdMfPV7Gp590B2TR3khLdOKcTNikau3YOfqZvDQiLBwXQp2/+38V70zeD3U3YYZL2RRogOBHAK3wRAVJGuypv8G3kCieJZcN4QeRZraYGnmazipD0V7DzlmdfZAZ0+ZvR0AL730EjZt2lTpUApNARWZIsj1wmvFzQaOmC5mz55NSQoThkBNIFDvCQLJtmjNvJWCmLdY7AmVREJwUgl9MO0Jl3j6GwnQzhckRCIJmmiyJvLpI+AgkEnpV6KtsDy5TuLrEiHJmkRCexInqcT+t8lM61dEEMiLxt/LDV3aNqOJls5fiUFcUgbN2kgyNhIDaUpqFk5fjqZJmFoG++NseCxN2tS+eQCCmvggLT0b/4ZFQW80o0WQH1o3b4z0jFycvBAJk7lsNLsqE4T//1px6fcCDBEnYUmNhct9oyD2CUHuoS9hTo1xem1WlSD4qkLQrdGjsNjMEHACXEzeh0RtBP3NVe6HMzd/Q1q+Peuko1KaIJCv7hn/pOLnGzqYC6JedlUkYbX3dLgL7GF+i4iOyB3iFusgVHcmuw/daPj8KBivkhTC8cjLF2LMJ+5Iya457QgjCBXPNHmkP5mYj15t9XR+xAHvQeQ3BhDYHT15QxxMV1+FTW9P8V4oN80BGJu0DDcs7kW/uUuF+Ol+P4S42utWRhBIxMh+992HcePH0zDN69avw+FDh2gMiMiICBw9dozGgpgyZQp27NiBwYMH4+GRI2G1WGAymbBy5UqcP3/+tsuYEQRHn3JWrioI1HOCYIM58gbdqEWBfrBEJcCqzQdvNEHSthmoblMoBG8wwnguAqJG3uAU0qI0zbLOLWC6Hg9YeZra2a4B5ykJMF6JgaxrSxhOhNnTPXva0z2b41MhaREI3mSCwE0Nw7HzkHVpVa4Gwd/LFT07huLo6aswms3o0CIAZ6/EokeHEETHpyI1MxedWgVBLpXg7JUY9OwQgr1/X8SQPu2RmZWLK1GJaOLngeZBfjhw8hJaNfXH1ahEdG8fQrNBHjsTXsbHoKoEQewdDPen58CUEI6s35eBE4rg0u95GCNPwxh30em1V1WC0MytK1p598f+qHWQCpXoE/AsbmSHITLzH3T1fwQJuVdwIyfMqfGUJghX0414YB/RANxqRswBy30+xwOK/5Vom6R5lrbaQMlckfA2mKPehyXtJ9hsHGZvcsPRsOozM5S+OUYQKp5uuQTYPD0HAT4WcNImkHbYC05YMqukOX4NLAklE3Id0A3DlNSpsPB28wkR4uS4oqcXHm9q9/+ojCA8/PDDmDx5MqZOnQrirzBx4kQsWrQIy5ctw8hHHsHIkSMRHh6OLVu+wty5cyhx0Ov1WLNmDUJCQrB06VLMmzeP+jlUpE1gBMGpR50VdhKBek4Q7CYGW64O8p5tkX/4LDiSXrlnOxgvR8FGnBdJGuXQxgXpmS1lCUJUAsRNG1EzhSUxnRIETiwGREI7QTh1GSAEwUMDUaAvDGcjirzS5P06whQeC2mr4DIEgagSHx7YGf9dikZigQlEJBTAarNhQLfWuBabRH/3dFWhT9eWOHY6HD3ah+C/sCh0bB2M/SfsmyBpZ0D3VohPysD1GylF/5+bp8eZy2W/7KtCEDiBEJqhr8EYdw7ydvdDd+pnGOMuwWXgaJiiL9x1gtDCqy92R6wiVA0aqQ8GNZ2A3ZGr0MF3GJK0EXdMEE4l6vH04aQSBIFsEx96bsBz6h9KPGJC9wchabGmJEEAD3P0bFhStsPGc5izRYOD5+ypxWtCGEGoGFWljMeW93Lg72kFJ28JWcddpeYKMCdtgyX2gxKNHNUPwaTkd2EuRRA+7+2Nh4LsYapvRxDIc7lhwwZKBq5es2snSC4Hg8GAz1atwvWoKPTu3RuvT56MT1d9VkQQMjOzsHTpElp+6NChGDt2LCUOpF55wghCTTxRrM1CBBoeQZCKIeveFoaTYXbzAbEO+LhDHOALa1oWOIWspAYhKgGSlkEwhUXRxE9FwMmlkPfvRMkH8cwiZgUYzdCfvESLiBp7Q9TEG8b/rkLep0M5BAF4ZGBX/HspqoggPNSvA05eiEKnVoEwW23IzctH08Y+OB8ei6zcPPTsEIrTBQThr1IE4WZKJiUIrZo2gq+nKw79e6XchD1VIQhCtRfcn5gN7YkdkDRqCaHaB9m/L4eq37N1gCB4YXDTV/Bn5Kfo4PtAtRCEHIMVI3bfRFy+fX0Q8RTpsdlvHlqKT5d4e3DSQEjb7AAn9Sn6nbdkw3hlHHjdBRhNAry01APRyTVnYhALOTzYTwONWoizl3S4HGVA+1AFOrSSIynVjL9O5sLTVYQH+9u93f+3Nwt6ow3391TDx1uM6BtGnDifB38vCQb2cEFevhV7jufSL+bh/TWQyQQ4eEKLxDQTenZQISRIiqxsC3Yfy4VExOHRIfZkQfv/zkW21orBvVzg7SHG+St6hEXmo3UzGbq0VSI/34Y/DmdTx8UnHnCjzo0nzuQhKqH6TiuUfrUTB8XVU/LQJtgICF0gafk1hOqOt+bKpocpYipsWXtLVM20+eLtjBU4pfWm3glE/9NGI8GXA33hqxQ5RBA2b95MtQBES0Dky82bMWnyZCxZvBjbt29H+/btMXDQIJBATO+88w4lAsUJwpAhQ+hv48aNYwSB7dm1gkCDIwjkSZd1bwNz9E1Y07Kp5kDWqTmsyZngbTaIQxpB/7f961zeqx30/16iJgPyliDaAKpBkIipaaI8E4Phv6sQN2sEgUoB06Uoan6oyAehkbcbNScc+Tcc+UYTRgzohL/+uYSOLQNxIykDKenkZWqFyWyBq1qBXh1CqYlhaJ/2SM3IQXiBiYGYFnYfu4Bu7ZpBLhHhnwvXYTJZYC4no15VCIKy20gIpEqYEyMoLopOw5BzcAsUHQfXCkFo5dUf+6I+h1SoQJ+A55CQG47LqQfRvfHj1UIQyD2eTzPg/VNpiNaaIOeM+MBrG4YpfoIQ5lIPKgdO0RqS4LngVK3AGxJgjl0IW+5xgLfi3DU53lyroG4sTO4+AsTPZ/IjJjw72J5xkZM1haTZEghUbcDzJpjjv4A1ZQtgK0tScrim+N70AX5Jb4SHA9wwqqUGvio7OSBSmYnhkUcewWuvvYY333oLGenp2LB+PUY9/zwlCN999x3OX7iA999/n5oeyHFFQgZIkq3PPltFk3d9+umnWLhgAfb/9RczMdz9pcN6JM8L74ir7L0KVcEpBlt2HqQdQ2H49wq9E4FKDknrYLspQCCgWgDTtThwAgEk7ZrZnRWFQtgycmCKjAcnEUHSuin9L6lDfBDI79I2wTCcjwA5/yV0daFaA0tyBqSEcCSlU9ODJT0b0rYh5fogEDVkE18PtA5pRE0D0TdSqBYgNMgXyenZyM69lZFPIZcgJMAXYRE3qE9C29Am8PbUIEebj3NXYimJ6NetFb0/QnS0OgM1MRCTRXFxniBwUPcbhbwzu2DT2b3NJU3agBOJIJCqYE6/AUt6vNMrpKo+CN7KYLT3GQqTNR8SoQLXM08hLucieN6Gpm5dkWNIRobeuWOt5Z1iIDeUb7Yh+fo2qDNXQykg5qXbCCcGJ3IHb8khnm+0YK5OgLlfq3EqvObMC04D3wArNPYAlrymRRNvk/0EAicFJ/EBrPngLZXMq0AGSIIhaPUjpLKSgZIqIwjkGOf999+P4SNGQCaVYu/evSCROUc99xxOnjxJzQxisZg6KX777bfo168fJQrEQZH8Tn4j5W73imYmhga4oO/iLTcIgkBNByJRkUnBzhLspw6o0yHx9i/0SOM4cGL7VwI1QZT3u4X8DvtJhQIzBXnzcEIBeBvxUbi1IfAWGxT3dayHxxzvbJVWlSDcWa/l166IIFCSELMGXHJJBzZHxpCrE2LpdxocvWSPRcCkdhEI8ALmT9CiaaOCU0dODKeiQEmVEQQnuqhyUUYQqgwdq+gAAvWcINiQf/gMrCmZDkBRc0UUg7vBpFFh5Ve7YK3F3YJoKZ55qDdCA72RvPp5mJPvfgS4QpQFMhW8XloHi6cvvr80C1n6kscHa242yrYsFsowqt0n8FAElLmYEPYl4s8uq3Q4QiF1RYHOwCMpU4Sfj8hwI63SaqzAXURAIQXGDjOimb8F7iqAuA2ZzJVHuuSECoQOP1om1PK0adNooKLalAULFmDmzJm1OQTWdz1GoH4TBIBGUTSeu1b5W6CGJlng5gLFwC6wCYQ4ejocpy5E1kp4Y6JaJeaMJx/sSWMq5B7cBO2xb6k5ojZEGtQBHs/MB+QqnIz/EWeTfoetCkGO7nTsHDgEaNrj4RbTIODKmgJ+/XUnFi9yPFkT4X/kXy1E075TKBpEffIcEMVhQcgTOk+VuYco5Ar89sdeegqhuMTFxVHnwsTExFrBrlGjRtQJMigoqFb6Z53WfwTqPUEgU0iCI9WWl5g9+NKts9Rm4pdQjvNgTS81EoZXSpwrC4X4UljN4E3lH5+q0fFwoE6PENzakEngI0s5jmI1Oo6CxiVCebnkgFyurnTPBP8RI4bDw/1W4J27cW+3+nAgDkMFRRyoWcGtlKpZ7H8daZOQt+LhJQo7qbTu/x/9PXz4MKKiY6ol7wlL93x3Vyrrre4g0CAIQt2Bm43kXkOguggCiXHxzdav0bxFy3sNgntyvO+99x4OHzoMSzVoyBhBuCeXABt0NSDACEI1gMiaqL8IMIJwb84tIwj35ryxUdctBBhBqFvzwUZTxxBgBKGOTYiDw2EEwUGgWDGGwG0QYASBLQ+GwG0QYATh3lwejCDcm/PGRl23EGAEoW7NBxtNHUPg9992YvnSBZWOqjAFsMUKmCwciZFVQu5FHwSz2Yw8rZZ678sVJYMEVQSIjYQdJzFBCgGpFLmSBUhQIH1+PoxGI9RqNVKSk2nQIC+fW6GsHWmyIoJAhkXClAgFfFHa5srak9NTDPvKnGKorB67zhC41xGo9wSBZHIkgZJIAKPaEIFCRhM5EcnLNyApNavcEMg1PTahgIO7xgVe7mralTU3FeakSNjMtXGKQQCxZwBIhkhwAuSZMpGmi4HZ6nwQmzvFjXjEuyn84akILLeprGvroY2u/Ky7kLMflDGagRspYuw6JcGxi6KiIEmVEQSr1QqDPh9iiQRikZhG9SwUsmmS6xaLhW6WJEJfaSEbs8VsoqHDxWJJmQ26sA2T0QCpTF5uG+TIK4niRzZ3kViMTZ+vwZfr12H23HkY8fiTJbq0Wa0086BIJIRYIgVJbXz4r33Y9+efeGrUKHTq2t2eSp3n6bXi90L6ERTdAw8LOdljNtN7T0lKwthnn0ZAUBA++Hg+Hn/oQYS2aIEdv/xmb4LnYbaYYTQYQDZuoehW6OPiAyxNEMg8N/YCHuljRPumJqhVVpprotIzjqRRoQKNBp2ATK4sgQGv18N89hxsGbUQZ4Wkn3d3h7hLZ3BS6Z0+Bqw+Q6BcBOo3QeB5GE5egjmmds4pU8RFQqhG9IVZLMbmnw4iPTO31pYi2aRefW4o3DRKpH39JgzXTtTaWEgCKO+XN8KmccfOKwtwU2tPaFMbopK4Y1znNSARFUtLVSMpkna+2eOKLXuFMFnIMij/FAPZ+Pf+/isWfzwHNxNTaPePP/E4pn84B57ePjDo9dj5w3Z8ungxMrNzEBrSFHMWLUGXHr3oJk+IwfVr4fhs6WLs37cfUokEz41+HhMnTYGXjy9tj2ym/9uxDZ8uXYyMzBw0DQ7AB/M/QZ8Bg+jmTTbsuJgobFizGjt/+pkShEcfexTZ2jzs270bK9eswcNPPFWwP/P4+/BBLJg9A9djbtDfBgzsjxkfzcWGL9bh159/wrxFn2DQkAewYfWniLh6Fas3fw2Viwv0+Tp8unA+rly5go3f7QA5xnhw3258PHsWUtMy4OvjhedGj8HKZcvQu+99WPfVVzi870+oNRr0HfQA8rS5+P3nH7Fq2VKkZ2Shbbs2mPr+LPTo3ZuSntsRhFB/YPErOfB2v5WAy9G1VlEkRd2mL6GdMdvRZmqknHrlMiheGFUjbbNGGQL1myBYbdAfOUvzI9SmKIf0gMFFjuWb/6jNYdg3n6E90CbEH8mfPQdzSnStjUeg0MD75Q2wuHliR9hMZBlqL5IiyenwYoflUMu8i/Ag+qZMvQURkfvhp/0C3oIr4HCboFJiHwgUbcDrI8GbSC4I8qXLYdVPKvzyt6RCgvDHzz9i+jvvwE2jRt/+/ZCalIQr4Vexc/ceuGjcMPudt7Bn924IhSKo1SpkZeVAIpHgvVmzMWrceJw6fhRTX38d6enp8PbyhNFkQnZ2Dnr06okvtnxNNQrTJr+GwwcPQiQSwcPDHakpaZDJZXj/g9l4bswEnP33FN587RUkJyXDy8uDfqWnpWcW5QAoThAunTuD0c88Q3NfDHngAeTl5uDMf2ewYOkyHPjrAH76fjvUKhUmvfUWNq9bh6DgYGz8djslCDfj4/DQwAFo3qIF1n21FfM/mIldv++iRMfH2xPJKWlUS0KEEIRPVqzAmKeeQHBICFZ8vg7vv/Um/tq7F1KZDF6e7rQ80XhMfPUVvDPzA3p/hVJcgxDayIrFr+jg7VaQaIvmzfACz+sBC8kvUr52kYcAJ/IH4F9jc7Rt8RJGNHUFiWdRKDlvvwv9t9tq7RkiHaumvgnVjPdqdQys8/qLQL0nCIZ/L8OWlWsPVmSzwWaygNcbwcmlEEgl9EXH5xvAmyzgpGJajlwnQlI/80YTDY1HrnFyGbVbkrTPJAeDQCmHLS/f/n4RCe0pn01mELMCDfAiEMCaq4Oib/m5GMjLpomfB5oH+dGvtutxyYhNTEO75gE0ZTNRz+bk6XDxWjx9MZFy56/GQSmXomWwP7w9NMjV6hAWGY98A0nFGwKZVAKFTIqrMYm4Vo7mxPlkTQWLXyCEut8LMFw/DVPCFXASGRTtBkPi3xLmtGjo/tsF3uK4iaCquRh8VM3Q0fdB6M25EAnEiMk6ixu5l6ASu6KV1wDIxWrcyL6A6OyzdG4dkfJyMRyI12H6qXSkGa2QccArHvsw0WU1JJy+ZJOcEEL3RyAOngVO7EYTAJlvboAlcR3AmxCTKMX4xSrwXPkahGmTXsLvv+3CzA9m4/HnXoBCqURaSjJ8/RtRzcG7b76FgIAArFr3BYKbheKf40cxc9o0uLt7YOuPP+P1CWNw/vxFjB0/DpOmToMuT4vZ776D40ePY/GKFdRUMG3KFBpt75Ply9GqXXsc3r8X8z74gH51b/vpZ0x55WVcCgvDhFdextvvzQRvs2Lhh7OxY/sOqqEoThBWL1uMVctX4OlnnsR7c+ZDqXJBZnoqNK7u+GjG+/j5+x3w9vHGy5MmY93qzyokCC9OmIh333wTwU2DseGrrWgSHIyoa+F4ecwYxMXdoATh4yVL8OiwB6iJYeSjj2Lu7Nno0KEdPtuwCf5NAnH21ElMmjiBPms79+yDn3+jMgTBxtsw5XEjnhyQV/BMt4UkZBkEyuaAzQBz0tewJKyifxcXMy/B2sw3sTFnCCwQgJiQRgaqsKiHF+QiO0lwmCCU8ccoJ3xj6TIOhuJkBMGRJ5yVqSoC9Z4gGM9ehU1vpNkbTecjYDOaIXBRQOTvCUt8Kt34Rf5eMJwJh8jPC5xCCtOVGIqnrHMLmK7HgxMKaZZHc1wyJQtCdzU1W5CsjYYTYTSls9BTA3GwP4xhURCqleDUSohDmkB/6AxNG210dymjQWge5As/LzeERyfSFzHZ+G+mZOG+ri1ouuf0LC0a+7jDz9sNZy5Ho2f7EOz7+yIe6NsBl6MSkKczgmR57Nw6GH8eOUdDKLu6KGja5wP/XII2v6x/QVUJgqRJa7gOex2WjARk/bqUEgSxX3NYc1Kg7DIchshTMMacd3gdVpUgNHPrijbeg3AwZhOkIiVaePSBjbcgJvscDZtr5U3o2fgpHI3bCq2xkkx9BaMtTRBSdRY8sDsBGcZbBEMjNGOD/yJ0FB8pcY+cog1kbb+nduoisRlguvoKrDnHqBbhjZUeuHqTKzdQ0t7ff8Pbr0+mvgXBzZrBx8cHo8eNRd8BgzF35nv45quv4enpgUZNmtDmbVYbYqKjqU/CkpUrMPWNKfTv0OahkMntanZtbi6io6LRf+AANA1tji0bNsDdwx1NAuy5Jmw2HrHRUTQvyLsz3seShQvRyN8fvx04DEmBPdto0OOhAf3oZl2cIBBzxhPDHwJxYGwWEkqdB59+9lnc/+BwzJ7+LjUxfLJsKdp16owXnni8QoLQrkNHfPPVFsyaMwdjX36tADoeG9euxuL5C0oQhOCmTeHn54dDBw5g4zffok+//rQ8IdCL532Izes3Yv7ixXhm9JgyBEEgsGHtW1q0CjQBQg2krbdDoCoWrMpmhClyKqyZu0vM6xlDD4xPmgMDfyv6qETAYWt/X/T2t+PsKEFQvvUyRM1bAmIJbGnJsMZGw/DnX7AlpNJ2JP2603+cxhMClRqcXAX9/7bD+NuhSp8nRhAqhYgVuAME6jlBsCL/0Bmazlnesy3yD58F8UyS9+0Aw+nwIk0B2dgFShlseYayBCEqAZLmgTBH34Q1I6cIaqKBkPdsA+PFKPBWK033LPR2s6eU5jjIeraBJTYJlqQMKAZ0KUMQiJxZRw0AACAASURBVMbg8SHdcPzMNaQUtOuilFFNQL8uLRERl4yktCz4emjQtV0zHD9zFT3ah+Ds5Wi0axmIv05comMh3zL3dW2JtMxcSjQe6tcRyek5uBp9k7ZVWqpEEIQiuI2Yivzzu6Hs/gR0Z36FMfqcvX+xFOpBE6E7+yssaY6nWb4TgtDCqy92R6wieTihFLthaMgk7I78DAaLFm4yP/Rq8jQOxGyC0aJz6NEoTRD+TtBh1JGUMornGR6bMFazo0SbQo/hkDT/rGAmbl0yx3wES/I34HkOH29V4+A5SYWRFA/s2YVN69YjNSUFNxPiKdGZN38eLl4Mw/fbd8DTywsenp4l+iWE4qXXXqUEgVQIDAqiTn7FpXPXbpBIxPh682Z4eHjA0/uWCYWUU6lcqNZg2huvIyg4EDv3Hixy+jObTBg+4D5Ex8SWIAikHjFrrFq+HOlpaUhKvAmDwYgXx46BVpePP375BZ9+vhat2rbH0yNHIKBJADZv3wGVixrxN2IxfOAAtGzVCq3atsO2r7/G3IUL8fy4CUXD3rLucyyYO7ccguCLQwcP4ctt29Czz31FBGHVkk+wdtVnmLdoEZ57cWwZgiCVWLHlvRz4e1rByVtB1nFXmTVhSf4e5pgZJX7foxuBqSlvwlos1jN51pb08MIzIS5OEQQIBYBEBNW0V2A6+A8EPp6Q9O+B3Kkf03eFy6KZ0G/eAUtkNISNfaGa8Sa08z6B7WZWpeuXEYRKIWIF7gCBBkcQOIkIsp5tqfMiMSsQEfl6QNjEB7bUTHBK+S0NQpeWMF1PgKRlAEyXomHT3foipwShd3uYYxOp6UKgUlATBDFpENOCuJk/1UyQetJ2IeUShBH9O1GTQXyBj8TQPu1wOiwaXdoEQ6UgZMEIoUCAM5djYLZY0LNDKE6ej0SPjqHYc+yCfYPmOAzq2Qax8SmISkijGoTgxt7w83bF3mMXYS0VarYqBEHo6guPp+dBf+UwRJ5NaB6FzJ/ngxOJoRk2CcaYc8i/eBBwUKVPxy1Vwptkc/TyxY6wWcg2JDu0jIkGoThBcJX5YlDwBOyKXAmFyBXdGz+Gc0m7kKqLdag9Uqg0QYjOMmHw7gRYi5mmpQIbVvt+hv6ykn4kAnVPSNt8S+xJt/rjLTBFkK/SP2C1cnh3nTvORpZvYoiLiaZOgn6NGyM3OxsH9u7B3Nmz0KJFKB554iksmDsPXbt3w4q1X9AN/UZcDPJ1OrRs0w5SmRSPDhmE6OhYTJ81E088MwomkxH//fM3OnXvCVd3d/z604+Y/d50dO7cGSu/WA8XtRpJCQnUFBHasjUlFc8//gguX7qMWR99iGdeHEvHQ04wfLZiJdVOFNcgEIfHqIhrCGnZEnm5WlwKu4BJ48fD398frdu2xt49e7Fs1Wfo3qsPXnjyMWhztdi8bRtCWrTEti83Y+HcuXj4sUcxZNiDeGvSJLRt3w6bvvmOOiKmpSRh4ujRCL9ypYyJYfjDIzD/ozno1qM7Plu/Ee6eXrh6OQyvjBlDT1Ns3/kLQlu2KkMQRCIrNr+bi0BfCziJP6Qd94ITljyNYI5bAUvimhLr5ZKxC0YnLUC+7ZZfg5jjsGOQL7r5OqdBIA3LJz0N2f0PIXfKNNh0Rnj89j2yJ06GTZcD5eSXoZ21mB6Dcf12HazXI5G3eBV4feUOlYwgOPyYs4JVQKDBEQSCkbRzC9jSs+nXPYRCSNsGw5KQBt5qg7R1EPSnLlMopZ1awHDqMiQhjakpwhQZTx9igYscvMEEaZeWZU0Mlwoc/6xWSgysWbkQB/iVa2Igfgad2wRT3wOz1YrOrYKoaaBTq0Bci01GYuqtLwiy8ffsGIq9xy9iQPdW0OoMyMjWQuOihK+nBgdPXqY+Cnl6A83aKBYKcfj0FapOLi5VIQgu/UaBNxtgSoqkTSk7PgjdmV1QdHwANl0W9OHHYMvPhjXHMZX+nRKE9r4P4ET8dijErgj16IEb2ZeQqY9Hv8DRuJR6CBn6BGTrk2B2MPlTaYJAEFt1LhPrI3Khs9gg4nj0U0RgiddMuAhuaZEoGAI5xIEfQeT9CMlABfBmWHNOwxz5BnhLFjJzRHhhgSvyTeWbGD567x38tvMXumG6aFxx+fxZnDt3DuMmTMC4Vydj8oSxuHD+Alw1agQFB+HatWsw/T+xnbNgPp59cRz2/vEr3n/nHXraoVXLFsjX6xEVFYNOnTth83c7YDIa8cqY0bh44SLc3V3RLKQZ/jt9FmKxCB/M+QjPjJmAf44dwVuTXkN2VjaaNw+hpOD69eiiY4q3CAKP7Vs2Y8G8eRh0//3w8vVHckI8Dvy1HwMGDUbv+/rg4w/nwN3dDUs+XYWTJ/7Glxs2Qi6Tws/fFzExcVAqVdjw9VaENG+BqZNewbGjxyCXydCyZXNEXItAXr6e9lvaB2Hzt9/i7ddexdHDR2j7ISHNcOHCRRiNJrww5kXMnDuf+lsUSqGTIjgb5o/PR9/2xHdECFHjKRA3mkjnjTgP2XQRMEVMAm+wmxULxQo5VudOw485fZBrFUMl4jAmRI3X27tBTBwSnDAxkLLClr6Q9OgJxfjxyBzxNGQj74fAwweclxrmk+dg3HWYtinu3RqykSPp+yVvzopKX+mMIFQKEStwBwg0DIKQo4Ose2voj9lt5JxEDHGQL0SB/uDNZpjCY2ElmzFJBevvCUlLe/pU0+XoAhIhgMjPE5LmAVQ7YIqIgzU9h/ogGE9dtvsgeKghDvSDKfomJRycQgFrcjpM4XGQ9+lQLkEgfkkalQJK4tQIwGA0IStXB2Jq0BvMMJlvfUGIBAK4qOT0OvE1cNeoIBQKqO9CZk4ePUvu6a6mGgeywWVkaUvUL1wjVSEIYu9AWDKTwVvszpsCpTvVHgjVnuBNOvpCt+nzYNM6flqkqhoEmUgFojUgmR/FQjn0Zi1yDMlQS70gF7vAYjNR00OOIZX+7YiU56RotPKIzDEhLmY3PPK2IkgUD42AnHcvx+Odk4BTtAAn8QPM6bDpr5NAEzQuwjd7NNj4p6jCUwxXLoVh0UezcOaM3YeCrMHxEyZg8jvvQq5QIjMtFatXLMUP27+nGzcJHvT+hx/goUceg0wmp74A50//i9nvTkV8gv04b88e3TF3yXI0DgykGqacrCysWbEE27Z+S9cLCXo088MPMPKJp+mJANJuxNVwzHz7DVy7dp220a5ta3j6+tNTA8tXr8aIx56gvyfExeHjWe/j2LHj9meJmMqefBxvz5hNx7N66SJ8+/VWfLLyUwy6fwh+2r4NK5cugV5vgKeHOz5ZsRK9+w+kJxe0uTk4sHcvZr07jY6BmE2eeuZpbPvmW/Tq25eaDR5/6CHqpLh956/IyszAhlUrsfXrrbBaLdCo1Zjx4RwMGT6cOksWl+KnGIZ1N2H2aK39MpkrZWsIZK3AW7PB6y6AN5ETNGXn1cbJcNPWClquEVxCFyLEQ2WPnVAgDvkgcID8hUdg+O0gRK1D4PrZSqQNHArOysFt+0YIfH2RMeQxCDxcIOrYAqb9/0LxxmgI3L2gnV55gC5GEBx5wlmZqiLQIAgC3fxrUcrzQait4VSFINTEWKtKEGpiLOURhMJ+qhoHwcZzuHhdgrlfK5GWw1VIEEg/ZNMmxwWJPVokFEGhUpW5TXLdaDRQW37pM/+kMAk0ZDDoqXlApdaUGyhJp82FwWCAi0YDqdROSosL2aSJ6YFs+mTDzdflUXOGm7tHCf8GQghJW0Q7Rcqq1Oqi/si13JxsSjwIYSBi71cPtcatjJ8EvZ6npdETyQkOMq6M9DTqLKlWa+jfIrEIbu63fDDs5XVQqdSQVRDhsThBIC4Arz9iwsj78iAVOx8wraI4CA4RBAEH6aBekI14FDZtFnRbtsAWbTenyZ99DLbMTBj3HQGnkkP+4hMQN+8Ac/QV5G/cDugrD2LGCEJNvBFYm4UIMIJwF9aCYmBXGN1UtR4HgbzMnxrWEy2CfJD82SiYU2svDkLdIggyPNtuAbyUds1RcXGWIBAtADm58NMhF3zzlwhavf2Ts7JIindhGTaoLkpHUpSIgCfuM2HMsHyoFKXiYFeCTIUE4Z3p0G8l/ie1J4wg1B72DaHn+k0QeB6mq3EwU98Bx87EV/ek0y+Dfp1gEwpx8OQlXI1OpMfL7rYQcuDn5YoRAztDIZci56/10J39wynHwuocszSgPdweeQ+8TIkT8d/jWvpxkDPrd1vI9u2rCsGw0CkQC8t+VYf9sxVHdy9xbFg8kJolwcnLYqRrS95LRQSBmmdstqLQx+QrnkQ3LDeXQUHZW2GKybBI/VvhjG02Ut8eirmwrcJwx+WFPiZliBBzlf1MjF3o7wVn8UnYZzKmwt8K+yfhlomQsZLfyH0UhlEmv91qu2Ro6OLt3K6cY6CXX6qiXAxqOYeBnSzwcTOBwuSAQkEkVuC5tw9DJi+Zj8J4+Ai0H84Dn02CLd194dxcoV74MSR9et/9zlmPDQKB+k0Q6PuTpz4CjrwIamLGOeLQVBB3nrygiV+BgzFQqn04YpGwYCOgB+phM/0fe1cBHtXRds9dl2SzcVciEBLc3QrFoS3FrVg/apRSF6i70FL72kJb6gUKlOLulkBIQkhC3GWj63b/b2bjQjYhIf3bnefpU7I7d+7cmbszZ145hwRuWbFCtntPAIYnBMOzpOURYGAgRDWdNDA8jgBcTm2AW93H7Wg1x5ioS9j4ztv4dMv3dKNdPn8u5i9egonTZzQa9dTkRHz/3y+x/p33awBEfl4ufvtuCx595nla/9svPsWg/7EQEjfE1m/+i5HjJiAnM5OyLh7auweH9u3FWxs3URIpUtdeJqfmf09PL9w1ZRptoyAvFx+8+TrumTOPgg0PL0+kpyTjRlwcvH39KJETyZI4fvgwBg4dhhOH9mPOosXY+duv8AsMokyPjs5OSExIgEalojoOvv4W68y5kycQG3UZnn5+uHrpAiWH2vX7L5DKZJh53/3wCwpul7ftjqg5krVFpSZoql363OpGCDkbcbG0URir1fezXfCvG4F/PkD4102p7YHbcwQ6GiBEXTiLd199heorkJTULz/6ACPHjUdZSQmc3dyQn5ONkXeNx9njx6ifnhAcTZt1P3Kzs6nGQr/BQ/Dntt9w9/R74O7pRXkPtny2CXYODpi7aClirkTjZuINSiL07GMPwc3NHbMWLKSiSNfj47Hq0TW0nVefexpPvrgecidn5GVn4Z1XX8bqtU+Cy+PC1dUNH77xCnz9AzF6/AQaGFlZWYmUpCTcO3cevvvvFzSQ0C8gEDlZWbh25TKm3ns/nJxdKGeCVq3GhOkz6bT8tvU7qJRKDBs9BhXl5fD09qaiS9t/+QndIyIweOTodpm+OwIQ2qWntkZsI/D3HQEbQPj7zo2tZ3+DEbgTAGHPHzsglUgQFt6dWpjSk5MQdfkSvv39D3z3+Sc4evgg1r/1Pt2sP3rjdcgc5ZizeBkunz+LstISGLQaPP0KiXhnaEbJp++/jcpKJZ7d8CpOHT9GAUJo167464/tGDxiNBVI6t13ALz9/DFu4kQLK+PLL2Hs+PFw8fSBVq3ED998jQ3vvEeDJomLgbgPrlw4i4/eeRe+Af6YNX8h1qxaCQdHRyrWtPb5l8AwHBQXFmDTO29hw3sfUk6GN158Ho8+9QwqyitosKGXtw9uJsRTC0WJohg/7d5HyZkO792DzLRULHv40UakU215DWwAoS2jZrvGNgL1R8AGEGxvhG0EbjECdwIgRF28iMzUVPgHBSG4azhuJsRh/5492PjVZnz50fsQEJ6A8O5wdHahaoYe3j6YNH0GsjKzqO7B0f17MW/ZSjg4yHHq6GEYDHqqlEg2fkIolJZyk27WU2feC2dXNzz/+KOYOG0azp86iRWPrIFKpcKv332Lpza8Qgm5ivLz8PlHH2DDO+9TASTCqvjC2sdw/4KFCI/siU8/eBdj756EtJQU3DdvPh09ku1w9fJFRPTsjY3vvIGZs+bgyMH9mHn/HPgGBFC+AuJC+eGrL9GjTx/4B3XBc2sewdIHV8NBLqdWjF2//4oN73xQRwq67a+mDSC0fexsV9pGoHoEbADB9i7YRqATAQKJISgqKIC9VAKVRks3S8IMaC+V4sC+fYjsGYk+AwZTSeiKigq4urlSqec/d2yHm5sbBg4bgesxV+Hk6gaJRIzkpCQMHz0GZpMRu3dsRyjRAOAwNBZgwNBh9EkJe6PRaICbmwf+/GM7hEIhJkyZSlMoSVFVVtJrlUqLwBGxbAweOgT7du1CQVERJk2dAj5fiNKSEoSFh9M6xHJx+fw5xMfGYsLkSUhMSERy4g0KCvoNHIBefftbgIRSiYN799BnGT9xEmV7/GvXH2DAwT1z5rbbu2gDCO02lLaG/sUjYAMI/+LJtz16yyPQ0RaElntgq9GWEbABhLaMmu0a2wjUH4F/PkCozmLopJlnCPVaVRYDSUcjJtzOKiSVjVedUWEyWpgROyNzgAEYLp9mMpBiZk2UGbGzMio4jIBKRzdVrl/8Axf3vd3ilLk5mVBawUVyDnA6wYhKNQOSPFNdbDwILQ5hu1ZoCiCQYH87MYuunlz0D2Pg6WZCSRkXhhaSEHh8MWY9vrdGLbO6o4Sx02jSgUVnZDEQJxL5PQupO4k1GcBqlTTNtDMKw+WBI7KnTLNgydpCKMk7a63jgeE5kFQpGvir0xkaadLcqTEi6cEiIZ8y3BJqVcLci86ZIprFTFiE69GBtjAQ/2yAQNIKE9JhSMrsnI2QhFtJRBCP6gMTj4cDp65S3YWG+gh35GVlAGe5He6dMIjKSpft+xjqawdouuOdLwz4HsFwum89WKkDlWa+qThPMvrvfFfAwFUaiKmhTzTJg9BaoiTyADo9B+evC/D1X1KkVWlQNQcQSMbAwb174eMfAKFQgP6DB+PKxfMoK6ugDITDRo2B1N4O+3b9AQdHZ5QpijHl3lmUdZCY9X/e8jV69OmHi+fP0xgGZVkpxk2aAmkVG+PVy5egKClBXk4OJCIh7pk7H1kZ6Ui7eRMBQUFU/yA+NgbdukeASDCTrILy0hLs2fkH7l+wiKY3ZqZnQFlRRhUaQ8O7Y8cvP9GshcjefWmcAwkwJKQC6soK3DVpMqIvX0ZhQT6NmRAJheg7cCBOHDxA6bk1ygrav93bfoeLuwfNzPD09KDZEzHRURAKBBg3aTJOHj4EliEbIAfDRo/F0QN7weULoVFV4q5JU3DyyGHo9Dr4+vqj76DBjd6bhgBBxAfmjNFh5nAtnGTGVmUGsowY3MjTEEod690npeQyTqR/C4OZpAvf6cKAzxFhbNAK+Mt7ovL0jyg/8CkFCp1ROEI7OM3aAHH4SBhyNsFAxK/YzukLOAII/J4Hz20BVb89cCoGxk7gniHzQA5lE0f0Ru/wAOiTMqGLTuw0Th4C3ogOEZUMsLL8swGCmYXmZDSMudaLCFk5bq2qJp00BFqR4G/BpDh78hCE+BEmxTkwFHQ+k6LJzRu/xD6HUo1FR6Azyq2olpWpn4JT8CGYFsELgedMFRC1cEvkK/hYs8ke2cXNUy0nxFzF8SOHseKRx2hwXkFeDvbs2E6DB1OTk7Dth+9hL3fAwMFD0WfQEJw5ehhiqRR9Bg6mmQWPLF2Iqffch6z0dKx47HFEXziPhLhYDB09BnJHR8gdnWAyGvHGi89h5aNraJzBy089joDgMKxeu45SND+xehVee+9DSsFMCgEeu377GTlZmTSd8okX1uPjt1/HmPET0XfwELz6zFMoKyvDJ5u/w4E9O8Hj8nH39JlIjI/DL99/CzdPb/To1RODho+k1EvlZSV47YXnseHtd5GSnERBwLb/pTs++fLrFAQ99MAizF6wGNPvn0N5Hnr160uFo4aOHIXXX3gGd02chKQbN6jS5NlTp2AnlVIAMnjYcLy0bi0+/Gpzo9N9XYDA4wKPzDBg5shKcJgq3g+GnHTJ094alJpYHkyMFLzIo5Da1QcIh1I+R2zB4c54ZWvuOdDnPgz1m4uSbS9biM86scjGLofD2FXQJa+EqfRIJ/YE4DlNgCD4Mxw9F4czZFPupEKWhOH9u2Fk/3Doom5An5jRST2x3JYf7APRgO5W9+GfDRBMJqiPRcNUVFeLga21ZFcTjFhrZqdEc9WbQBNjTL6vyztUtWG0pMVQzZpHFubqUsukxzbpBbB03cJ8V/e6lmb+drQYpH0nQ5ceA6MiGxyxHRzuWm25HWuG6vJO6PMsQj/WlLZSLbtK/EDUHEkxmQ24VnAQpZo8RLiPhRulSmZQqVNQyee2qjmStvUmFlsTy3Ep6wYEuhuYY38cvUSnmwQKDNcOPO9HwIh8qIKjMWsTWEM+nbd95+3wxk/CZqmWCUD4689dmP/AcsoHEH8thsoez7jfErBHNvc3X3wWa557sSaIsHp8mwIIWelp2Pjm63jipZep5YG0+fLT6zD6rvEYPWEi9u3cgdBu4Thz8gSWrPpPPYBANBXoW1X1u3j20Ycw+38ESL36DcCGJ9dg9F13IzU1Bb5+/jiy7y/MXvwAtnz+CR564imEhkfQa1cvXoCg0DB06x5OgymJAJOTszMNqky5Ho+iklI88dwLeGndGji5edJ3p2//fphy7/1UkfLLjR9gxv1z0CU0jBI2/f7TD1j4wAocO7SfEiyReXnyxZcgc5Aj9ko0vvpkI9797Euq/VC31AUIE/qZ8PyiMotllSMEz+MBcOzCAbMBxsIdMFecadK9lWHojk2ls1FitodU3g8PRzijp2vtfawFCO7SIHR3G03TQE2sETF5+1CqLUAfz8lwELkjJv8ASjQ5CHLsAz+HHkgoOo4CVX11yeZ+U7cDEAQ+3cC1d4Ym4TQYoRiykUvAEclQfnATzFoVpH0mge8WBOX5bTCWtSzH3jJAYMB1HA+zKh6sPrvmkXhOM2CqPAfWUACG7wGe2xyAK4Wx4CewOjIOHHDkd4HnMBhmTRqMxdvBEQeB4UjpdU0VawCC5T2vXV/rspc2t6Zall1LOnHdQq5t6pq6AMGYUwRWVWttYg1G6K6ngsPjgd+lSjE4NQfm0kpwxELwgryhv55GDx1cFwcwAgGMuUXUjSPo4gWOzA6GzHyYFOUQBHrBkFsMVqMDQ9oL8YE+KQtcmQS8QC+Yy5QwpObYAEK9WTOZYczKp0xnHHdnmHKL6OAbi8og7BkCRmRh8jMVlEAXnwa+rzsYidAyKQBEfcKgv5kFVmeEsEcwOA4WHXkyIfrETIj6NZZ71l5KoHW4zg4Qdg+C+lwsJM2oORLf1KgB4XB3kdOXoEBRTmWbR/TrShUdyTsol0lx7GI8KirVGNQzBPtPX0MXP3cM7hVCF3Lywl6KTcH1lBxLn4V8TBzeCycuJ6CkzBKFXre0FSDwnDzhsvB9aFMuouyvj2mTPCcPcERS2A9fgLK9m2CqKGpuHWv0eVsBQhfHfohwH4dT6d/DXuiCXp6TEFtwEIWqNAi4YoQ6DYKAb4fTGT/S2AZrSlNyz9/Fl+HVmFIYqhYCV24pNnuuR6jgev2FgesAQbct4Nj3qvmc1WRAd30+WH0uVFoO5r3ijHI1sPX77xAa1rXe9QQgnDh2BKsee5xuIISz4OypE5i/dDlNHYw6dxox0dGYfM+9CAoORW52FmVB9A0IamBBSMOKx9Yi+uJ5XLsShbmLl1F+gd2//4rysjIseXA1SoqL8PF774AFB9kZ6fjgs88p6Ki2IKjVSqSnZcDH1wfENZGdmUEzHp586WVsfPNV9O43AFu3bMa6FzagID8PJUUF1NXh5eOLoaPGICs9FV989CG8/PzRb8AADB4xij4rYYtMTkzEzNlzcHDPn9RdcSM2lloQRGKLoFNxYSHN4Dh97DDiY2Iwevzd+P2nrXhk3TPISE+lapCDhg7DN59+DHu5E0aOHQc3d3c8umwxnnrpZQQEh9Qb12qAQNxWry+rkntmuOB7Pwaez2qAWBDI9qAvhC5hOVh1XL3ri4xemJe7EZnGWquBs5CDXRO84WdviVexFiCEOQ+Bt6w7rub/BXuBC/p4TsG57N+gMpRiVMADFOSSOQ1xGoTE4jPo4zUF57N/Q6EqvcXXt80AgeHAcdrjEIUMRcHnS2FWV4Dv6gO3lVuQ/8k8kMMAcRuRA4Fd3yko2f4aWOOtXQbWAASB/3owAm/oUh4BzFpwJD0gDP0MusRlFul0n3UwFGym3/Hdl8NY8F+AYw+uy/0w5n9J65tV0eCI/MDwXGEo+KbJMboVQJDLJBg/tAcEfD41+l2/mU0p8JfcMxLp2YU0o8hoMuHPY1EY1rcrihTldH0dENkFIYGeMBhM9Ld3+FwcDEYTphAXstlMFXX/On4FGl2timw9C0JsCkwZeRD0CYMxLZcqAkPAg7BXKAw3s8HqDRCE+cNA9hy1FuIhkVDuv0BdEoIgLzBSCfTJWRAPiYAhpxhmRRkFEcbUXAi6+kMXn0r3N7KvEXp/3dUkCCODoYtLAdfVESQezqzW2iwINW8MtSBEwVyhgnhQBNTHoyn6Ew3sTvUZyEZP0VhXf+I4BmtiGwOElGwq42yqUMGYmU8tBAREkP83BxAYHpf6enRxqXSim7MgDOsThnKlBvHJWTCzLAUFKo0OI/t1Q2J6HnILS6ms8/B+XXHqcgIG9gjG8QvXMW5oDxw5Fwu1Vk8BwbjBkbgQkwxFuRIj+nVDdr4CNzMLmvzhtAkgMBw4jF0GgyID4m6jUHH0GxjyU8AIRHC69wXoUqOgvLSrVb612wEIYa7DsC9pI5V1dhJ7Y4T/QuxL/hiOYi8M8J6JExnfo1zb9PM3NSgNAUKlzoQhu7JQbqg1PxMgtkp+GI87vVWvCY7DSAi7fVOz4Vh2HTMMKU/BWLQDRNXx+a/kOHed1yRASEtORPTlS7hnznwK+MjCc+zAXkRHX6GpjhOmToO9vQw7Tda68QAAIABJREFUf/0JlSoNXJzkmH7/XMjkclr33VdewvDRY7Ht118p34CrkxOm3jeL0hzLZPb45vPP4enjQ8mOnF2cMW/hEuh0Ohw9uJ+6JoiF4sO33sB/1qytiVu4fi0G16Iu4d75i3AjPg6Xzp2BTqMBj8dHl9BQjJk4mcYebP36C8yav4jGIKSkpsHd1QXjJk2l1gnC4EhSGCViMabfex9OHj6InLx8yOykmHH/bPzx809YtGo1VW0k5cql8zhx5CikUgnGTLgbn370IbUSEBbHydOm4cyJY8gvLIKrkyPGT52Ok4cOIK+gEL5+Pph272zw+PWDTKsBApdrxlfrKhDkZQAj8ICo10GAW18t05j7LQwZr9Sb16Oq8XikcB2MrAVIkEIsEB8PccO0AMv1rQEIRAjsdOZP9DpiURgVuAQ7E97C6KAHkFB0ChFuYxCVsxv5qhR0cxkBT/tgHE3b3GEAgVgPpH0mw6jIBLh8VJ76CYxACK91u1C4+SG4LvoQ+ZsWUODgMP5B6NKioE26eMv+WAMQ+L7PgeG5w1S2F6byExD4bQDDd4Eh+11qOTAq/oRZGUXvw4hDIfB+EsbiHfQ7Q85HYDWJYM1q8JyntQkgkPVy3tSh2HfiKvKKymiMgL1ERAnKFk4fjp/3nEWlWoMhvcOg1ujgJLdDcUkFhAI+xGIBzkQlUTDg6mSPIb1DUVauoiDh7JUkDO4dSts7dflGzTg1cjEkZ0I8pAeNRyAqw+Sgaswrpv+m75hMAlHfbtDHpUDUv1sjgMAS8MHnVlkWLC8lWTdEQ3rQ/clcqaaBiAR0aKNvQBjRBbqYZHpg5fm6U4uDqL8lNdma8i9wMdQHCBRdDegOzblYEBMPKVx3J/D9PegkkaDCehaE1ByK6vSxKRR9VRdGLKQbP0uyEliWmnXMZZXQRiVA1K8bDBkF4NiJqA4E388TOif7ejEIHA6DWRMG4sj5eBSXWrTq3ZxlKK1QY3jfMCjKlCgqrYSfuxNEIgFibmRgUM9gXEvMRHCAJ05crD3JDu0dSoEGl8PAxVGG2MQMDO3bFbuPRTUShmoLQOBIHeF8/8uoOL4FwoBe4EjkNMiRRC6Luw6COGI8tPFHobpmvd+xvQCCvcAJ47usxl/JGyHkihDiPBgB8l7Ym/wR1IYKa34DaAgQFGojBu7KhL6Be3qe/SWsd322Xptcp4kQhG1qwP7HwpC6HsaCH6gV6LWt9jgSLWoSIFjVQVulVo9ANUDg8UzY/FQF/NyNYEQBFoDA8Oq1ZyzcCUPK2nqfHVWPxyMFjQHCxsFumB54ewDBSeyFiSGPYfv1VzAqcCluFJ1GL48JOJP5M4rUmQh1GoxAxz44kPJpi8/dFgsC+d06zX4F+qx46NKuwOGuVVD8/BxY1kQBQtG3j8Bl8UbkvXcPWIMWDmOXw1BwE+rYY+0AEJ6Fqew4eM5TYaq8CIbhgms3AIbCzeC5L4Ux/2uYNckWgCD0g8D/NehuPkTBHc99MTjSbjBkfwgO36lNAMHZwQ6TR/fBD7tO0UMZ0afxcnNCcWkFFs0YjsNn4+jBq1dXf1xPyUaQrzsUJRUI9HNHdFwqMvIUNWMwaUQvXLh2E+OH9YRBb4SdnQgqtQ7bD1ygbdNnaBiD0BAg9OsKw80cundQgCARQjS0B93Uxf27Q7nvnMWC0MUbZM+hgmsaHQyptTFbDJdDAYK5vBKsRkv3Il6QD9QHL4Dr7ghegBdM+cXguTlR67kNIFRPYTMWBPHgCHq6J5YFUgQRQWCVGmri4fm5Q3s+nn5OrA7aqBsQhAdSZEZ8OJZZZMAIBRThac/HgTWYqI+IH+AJU54CwoHdYa5QV7kwWBoHpRXyGgUpEgtCWaUacURtEsCkET1xPiYFvbv5Q2cwUnSqMxqRkVMMiViAwT1DcOxCPCYM74XdR6Poy0LSZ6aO6YMLV29i2ti+MJpZ6naQ2Utw/koSRbZ1S1sAgqTHOAg8Q6DPS6YnZXG3Yag4uRUcvhi6jGuQ9pkInqMnyo9usTpbpD0AAofDwzC/udAalShSZiCjIoYkfmFiyKM4kb4F5TrrXB4NAYKJBdacLMDubFVNSImIMWKj+4cYJTlQbzwZkT+EkTstaVU1753yf77FRTArr0JvYLDiHRdkFDXtYmhxB7BVaNMIVAMEhjHjg9Uq9A7VAhwRBGH/BVduIYyixayDPnktTCX76t1HYfLC3NxNyDBY4jJI8RRxsWO8F7zb4GKotiBwGB5G+S9GkSYd8YXHMD54NbUgyASu4HJ4iC04gtGBS5FRfhXJiluf2Emf2gIQ+O5BkI1eTGMPCIIV+kVCm3oZ2pRLFCAUfL4E8omPQHV5D7Rp0XC653mU/vkuzKpbA27rLAjPwqT4C4zQk2YZ6FMegcDnWeoqYETB4DqMgCHrVbDExeDzLFhtKszKK2DNOrC6FHCdpoAjCgKrS28TQBAJ+FgwYzj2HI1GfnEZ5PYSzJ0yBD/vOYO5U4bh0rUUaHV6ui7nFJZgzKAIakEgGifEwkssuGTzJ5bdUQO6Yc/xK9QdwWEY9OoWQA9pF66l1LwzLQEEnpcL3XN0ZJ02GCGIDKb7ENlrpOMHQnM2FqaSCrqpU9cDy0LcPxyaC/F0/+L5ulFwIewR0sjFoDlGLDFErNBMreSMSAhzpcrmYqhdqKtcDOUquplrTsdY9ndHewi7BcCs1AB8Hs1P1V27CaK8KOzbFaxGD4LKzFo99PGpFLmRGARWT6wFZuqWMCRmQEAm5dJ1aiXgOsmoFUJbZ0MWhPhQKwU/wLuRBYH0QyjgYczA7jQFR280QiYV0xgEAhBuZhUiv6hWRtbBXox+3bvg6IV4dA3yQtcAT5RWEm17ITLzFNSyUF3cnGTUX7bvVEyj/N/WAwQGDmMfoC4EU4UlG0QU3A8cmTMEnl2pNcGsKkPFka9h1lkAlzWlrQDB0y4EvT0nQ20og53ABRnlV5BQdJJaDoLkfam5LbnkPJJI2qSV8tFNZTFkVRrwWpQCV4rKIUUFpkhPYLl8MwRMrRWp+jkZgScEIZ+AEfuB1RXCmPslTIo/6dexKSKs3iilQO6N11/H2HHjrBkeW53bHIFqgGBizVg2UYclEy3xOIzID/yADfQkypo0MBfvgSH3M+rzbliyTJHYVL4cacYA+MtdsKaHM4IdLXFLpFjrYvCWdUOE6xjoTGrIRG40pTeh+CR1U5J4g6zyOBqk2M9rOnWT5VYkIKbgoFUj0BaAIAodDLOqFPociymcgHtJ3ymoPPUDnGYQMPAOTX+WjV0Bjp0T1Ff2Qpt0vsX+WAMQeC6zYKq8BFafBYbnTAMT+e4PwFh2EKw+H1zHSeDKR9NgUnPZMRgVO8ERBoDrvtgCwo2lMOT9FxyRD8BxgKmsPmCv7uStYhBcHO2plZZYawV8Hog193TUDdw7YSB2HLiIyjqW4hH9u1ELQkJqHkb270rr6wwGOMtlOHslkVp/iauBxA8J+VwcOhdbL429EUBIyoQgPAAkYJEEDhITA9/HDVwfNzA8Do2H05N4MpMZHHspBN0C6OfG/BIY0nItAYuO9uCTVEWikaJUw5iUBX6wNwwkhV6pASPgQRDRBfqENAi7BdL9ixxY9Ynp4Pl52ABCzZtcZUEwFZXR0zwxzdQs6kQqlXxGyCvI59VRqRwGHDGJVGZh1uhr/er0c+IvZWDW6iioIFYEVkeuJX4KDjXtUB9RVWEI+CCWiGaCFMl3xGdlJxHRUz+JPyD+LLFQQAmV6ubukpeYoF9i/qJtEguGkE99Z+SzuhG0pE1Sl7TXsLQeILS4LrSpQlsBQptu1sJFzaU56owscm5+C2HxfyHnFoNzK0Icrj1dwFiTEjBagJ1Gx8HzXzngYqIln3/d2rWYNXt2RzyCrc0GI1A3i4GQI321VgNfj6oIco4YDN+RZjGwBgJ6m5c8JymOWsYdkohtkEjl9e5iLUDoyMlpC0DoqP60DBA66s6N220pi4Fs9BKycZrNNLaHrOvEQqBUa+tt8GKRgLppyTpLrAR2UhEI+RGJT6j/GUPdC2T9rltsaY53bs5bf6dqgFAVANL6BtrnCsnovtA51o9BaJ+WW9/KrLsHoWugB/I/ngtDoXWpVK2/S8tX/O0AQuTrlDCpYWkLURJpo7CUh60H7LH7HIccBihAeGLtWtxvAwgtvxztUKMhUZK3M/DcfBV6hjS2FLR0u+aIkg6lfIHYgkMtXd6h39cAhD9eh+rSzg69160bZ+Aw/j+QjVoK3c1HYCrZ24l9AXiu90EQ+DZ1CZAA784qBCCMHBCO4f26UTcCOdV3ZiGWBxIjZ235Zwcpsiw05+NoSkmnFR4XdpOHwSjkYcv2EygornUb3Ok+ESa95fePgYO9BMU/rIPm+ok73YWa+3EdPeG2/AuwMifsvPEmNbN2VpEJXbGg53sQ8epHt5P+lCZvQUXyu7fsGrH+SIQmaPVclFQwuHiDj11n+MgrrTVMEYCw9vHHMXvOnM56zH/VfZuiWrYTAUO7mzFpoA7+HiY4yvTgcpu3HlQPWHMAIa7wCA6nfAGzla6sjpiACcEPU44FdfwxlPz2Eg0q7IzCkbnBdfEHEHiGwVRxHvqUNWAN1sUAtXd/GaE3hF0+AceuJzJyi7HjwAVqGeiMYm8nBjmUebs7wVhYCu2ZmHqW7DvZJ0YqhnhkH3Dljde55vrxzwYIxHhITPVZhWCrTPN3ckLIvbiucnAJzwEh3zEYkZCSAzVxXdzhwuNxEOzvAUdZFZeDsgTaxDMwqwln+h0uXB5EwQPBd7Oc2DWGSqSVRUOtv/PgifgOAx17w0ns0+QgELGm1994vVUD1BTvlg0gtGoIb7tyS2JN5GRnoRlruYglYhw8cBCiBmRMhGcjvewKStRVwcstN9VuNch7SwIffWXdqf+bFtYM1kQys1oGPe3WkaqGiLZKNbdEVWesDlhu775YeLRrZ5eOhrVkeO3emVriMcsc3fm5qX2kVrz01fPKtoaGrwMGz9akbQT+ziPQnmqOjz++BnPaUdL47zxund23lgBCa/onkUhw6OCBRgChNW3Y6tpG4P/jCPzjLQj/HyfF1ue/zwi0K0BY8xjmzJ3393m4f3BPbADhHzy5tke7YyNgAwh3bKhtN/r/OALtCRDWPPYY5s6zAYQ78R7YAMKdGGXbPf7pI2ADCP/0GbY9322NQHsChMcefRTz5s+/rf7YLrZuBGwAwbpxstWyjcCtRsAGEGzvh20EbjEC/x8BQnVYUV11un/bJNsAwr9txm3P2xEjYAMIHTGqtjZbPQJEeMla5sNWN97CBRyG22yNfX9twycb37TqliRAWafjoFJDebTqFZLF8Ogjj2D+ggVWtUUqVVSU47vNTQv2kEDt/gMGYuDgIbS9osJCnD5xHNFXY6BQFIHPF0Aul2PkiBEYPHQYxBKJ1fe9nYoVFRUoLSlBcVEhAgID4ezi2mxzhKSmuLgIJQoF1Col+vxPVrq9yq0AAtFak4hYq1IcSX/EIgl+/PVgjfJk/T6ynZbmWP+9ZalEM2FA7IzC8PhgBNXvGGshoGJvrf7YYf1khGD4TjSTgYBlQhhHyI46oxDSOqlYWCOhThcGk5kKzd3pQgTbCKFfa0qHAATC96w9FUNpIDujcL1dqSAToVHOKVBgx4FLUGk6Jw92QM9gjB5IUpEYFBYU4NvNm1FWalHuupOFsH8NHzkS48aPB5fLhTbpLBS/vtCihGtH9JEsJrIRi2A/fCFYDgfXC4/jaOpXhLuyI27XQpsMIt3vwqiAJbXpYnWuaC1RksnMIKdIiPWbpUjJqwUKbQEI6enp6Boa2mT//Xx9sO/AAbi6ueG9t97EBx99DCMRDmuiSCUS7N69iwIFDrd5MNTWwTebTSguKsKr61/Et1t/ov0gC/PXmzdjQROASKvVUEnnJYsXIyU9g7LZicVilJa3X8ptUwDBQcpi0VgWM0eVUYZ1hrFukW6OB6FMm4edCW+iQlfY1qG7jesY2AmdcV/4ehAeD/J7Lt76RD1G1dtovNWXcu2c4LbiS/CcfWFU7II+dZ2Flr4zCqE9Dv4cXMdxuJGagz8OXqJ6CZ1RyFo76+6BCAnwpNTK6iOXakQC73R/GCEfkjH9wXGwpLpbUzoEIBB9AqJb3WmFYSAmgkm+7vjpz9PIqqPAdaf7RBDkQ/MnQCTgYuMHH9CTXmcVAlIeWL4cXbt1pRrw+uxaRcg73SeOREYXFJOzO36JfQElmuw73YWa+wm4YsyLfBtOEu9GfWgtQKhuQKXhYvsJCb4/JACh4KAA4eGHMX/hQqufsxogiERCTJ48BXyBRQeA6DosXLgAPB4Pzzz9DKKvXKH51V3DQjFoyBDI7O1pveycbBw5fASlZeWwt7PDqlUr8ewLL0IqtX6BaKmzRoMB77z1Jj777DMoSkrrbVBNAYSkGzfwxNrHceLkKej1tXwgHQ0QenVhsW62EgGerecgaQ4gHE/fgujcPS0NUYd+P9RvLhVsKt35JpQXd3TovW7ZOEOYFFdDNnIJdMkPwlTauQyTPJd7IAh6F8fOx+F0VGKnjQux9BE9hxH9w/8eTIphflRO2trSIQBBez4WhvT8Wq4KAtTNZsvf1aQe5O/qQkaxmkCCklywtVwfxCxCCvme/EdE2evab6v/Jv+n7Vjqivp1hdnfE1t3nkJeUeMTO1lkSX/MRIuBZSnPNkPaoJez9HPSHIchVLmWvlbXqf6+7mf0OjMxNzY+layePx5SER/vvvkmiAn2VoVs4uS0Two5WZF7kY2guphMpnqLMKlP/iN1rSkLFi1Cz56RyP94Xuupljk8gDU1JvvgcC2nhVaQgLSVapnoJkgEDnQMGDDQGCuhN1Vx7NM54kLEs4fGUG61Ga8pLQbyKOV6EwpTv4Ok5CvIOQpw0fQJnbxIDM8RIEyMJjVYQwmZPeiNDN78wQGHorgUIDzy8ENYsHCRNdNE61QDBHdXF8TExUHuSMymlpJ68yamTJmC1NRUuLm64IUXX8SiJRYriE6rBZfHg1AgQFZmBtY98QQOHzlKN+SX17+EJ599rtbkaXVvGlfUaNR4Zt06fP3NZvobIZt8RPdwTJgwAV3DQjBg0GD4BQTVXJiSchMTJ9yNzMxM+o67urpgxPARGDCgH7w8PHDvnPbL8KhrQfBwBL5+sgJy+yqTd5VuBlgjWIOiWVO4GVzkGb2hNDtC2u0bBLk4UrW+6tJaLQYJXw4eh0/fWxNroHLkhGyJzxVBzJPBzBqpCFlrmBlvR4uBEUpACI6qydLIvzn2zvR3bFaWgDW1zkVgjRYDw5NTpca64lgM3wWssZzKcDMMH6ypEgxXBvBkdG5q5ohqaFT9BozlFt2TZkpLWgxEx0YkFNB1k7Askt+7zE5MWyMzrNUZoNUbUFeLodpdQPYB8h2pQ4pQwK+pZ2mrdg+op8UQnQh9cq2oHt2rqtfthvucZXOp3evovliHaIm+h1X75q32RdpO1R5qNoMf7NP5Yk1UllKpBiOzo/8nrgZDViGE4YHgyC2nG/IZ0bzmSETgujvBQBSsiLKYtytYnYFKXBLVK66zA930zaWV/5PQTYWgawAMSZnUTEM2dH7XAOivp0EY2QUgZiSWhT41l6ovNgcQencLQFiQN9QaLUxmFkfPxSHY3x2eLnKotTp4eTjj8NlY2taQPmH46/gV2EtEGDM4gvaRaIhfiU/DzawCdA/2gbODlLIkpucUIV/RGABYCxCIOWrkqJHw8fOjk5+WkoKzZ87gvlmzkJeTDXcvb0rWsmfXLpSWWVgHe/fuCQ8PL+zbV1+utrkfTlsBAsMTQD55DbQJJ6FpoOxmP2wulJf/BKtt/gfbsD9tBQhBjn3Rz2saovP2QsgTw88hEpdzdqNInUEX3p7uEyDgiXA590+6+FpTmgIIp3LUeDVagZRKPdz4ekyWHsQj8i+bVHPkut4PvveDYEQ+YPWFMCkOwJDxBgATMvL5WPiGjG6IDz/0EBYuun2AQBa1JQsWYNv27fD28cbWrVvRo2cvfPj+ezh3/gIUxUXUX+7q6oaHH1qNYSNH4d233sDLr7yGlzesxxNPPV0DQq0Zn+bqvP7qK3jttdfpgujj7Y3Pv/gco8aMBZ/Pb3RJfl4uZt17Ly5dJhK0wMoVy/HEk0/Czz+gXcBKwxvWVXN8dKYGs0Zb3J0caS/wg14BRxIC1qSGqeQwDBmvAabKek2YwcOXJf/Bj5VjUWKSQCbgYVaAPZ7q4wQB17JYtxYgjA/+DzLLYmFijXAR+4B4oi/n7sZI/4XIV96EvcCF7hmXc3dZ/e7eDkBwGL8K4rDhKPjiAbAGPexHL6bAgOHwIAzsg5Idr4HVNxZ8a+59aBkgMBD4PQ8WPBgyX6EgmhH4QBjyJfSpa0EokjkCfxgrToLnsRLmylNgeB4wq+JgVsdC4L8B5sqLYImou9MkGHLeh1l1rcnu3AogBPq4IiLEF2nZRVTwjrDLnruahAXThuP81WQYTCYE+bhThcfe4YEoKimnDLh3j+hFqfIJOAjx88S1xAyk5xZj8oheSMkuhLODHXVlnL2SXAMS6gIEY3oezGUV4DjYg1VrYFZrYUjLo8qMXJeqfU6pgS72JjhCAQTdA6G9lED3IZ6nM5VrJoqORCKaH0KUYy3WMKLxIAjxhT49F2yVmqMwMhjamGQISNtOMqIKCFN+MViTufMBgvZcLH0Q0eBI2nnyIKTDhPZYn5BOAyWE3YMo/bGpQAGevwd0MTfpwwpCfWFW6QAuA66DHd38ycmcI7ej+tfigRHQXk6gmtlEklk4sDu0F+Ko2UR3NYkOALEwNGdBCAv0RNdALyqFTCaT6HpXKDUY2DOYBrNEx6fB01WOu4f3pMBh4sg++GH3Scy8awAFDURDXCaVYNLIXjh0NhY9Qn1xPSUXJeVKChKaKtYCBEdHOaZNn45ff/6FqjkKhUJotVosXroEW7/7HsR6ENwlCD1798G233+HWCTC0uXLoFSqsG/PHhQVW+SYb1XaChCEXfrCfvgCsNpKlOx4A6xeC3C4sB8yi8YxKC/suCMWhC6O/RDmOgz7kjZSC4GnfSgGet+Dv5I+hLPEF+GuI3Eu+3fojCqrF9mGAKFEa8KI3VmoMNRaZWRcAzZ7vY5I/ul6w8uIu0LUYyfAqZUBhkkH3Y3lMFecgcHI4OEPXZCYA7pZL1y0uKUpqvm+OQvCscOHMXXaNKoE+uPWrRg+ejQe/s+D2Lb9D7rZCvh8+q6Qd8hOKsXnn2/C1Bn3IDMjE12Cu4DLrbVIWd2ZBhXzc3IwbNgwZOfkICQkGAcOHICXj2+zzW36+CM8/fSz9B2ZN38ePv/iS/CaABJt7U9zAIHhmPHxwypEdtECXDsIw38Bxy68tjprgv7mszAVb6vXRIyuLxbnvQaNuRbs8BkGv4zxQH8Py0mztQBhXJeVOJmxFXqjxeI1Jmg5bhSeRLjbaJzP/h12fEfcHfIotl3fAKXeujiltgIEnpMnZGOWgdWpoMuMgzrmEBxnPgPl6R/padpl3pso2fk29JmxVk+JNQCB7/cCuHb9oc/cQDd3vu+LVDPBkPY0GKEPOIIAmHUp4Nj1gLHoN7BGImhihCDgHZgqTsGksAhSMQI/8DxXwZDxfKsAAlHBXXLPSPy85wzKKi2gkViTBQIeFk0fjp/3nEWFiuwHIfT3Q8BDcUkF1a8hSo3nY27SzV8qEWLi8F44cPoaJo7oiVOXb8DXwxnOjnbYf+pakwBBF3WDWhDEQ3pAn5QJU2EpeL7u4DrLoI9NofscP8gLHJkUxrQ8iIdEQLn/ArUyCIK8wEglMOYrIOwdAs3Jq3T/JAdos0pDBZh08an0IE1UisUjeoPsw+IB3aCJTgKrN0LYK4TeU9S/zvvfwux2jIuhAUAgDyge09cSuEilNYk1iQth71AYkrOaBAg8L2fok7NhLquP7CVj+sKsIiYqE3VXEFRFBDCEfbvSQSDa17oridSi0JQF4Z7xA3A5NhWZeZbN1NVJRk1M/SKCagACQZhD+4Th5MUETBrVBwdPx6BvRBC2HbhQM/EEgRKA4eoog4hMiJCP2KQspGU3jjGwFiCQk9eoUaPg7OKMwoJCXLlyBeXl5TUAoToI7Z777sMf27ejV+/ecJDJkJ2dhSHDhuGH77e26GpoC0Cg1oMpj1Mfp6Tn3dBnx0ETewyi0EEQ+veA5vop8Fz9oL7atDZ7U+9gWy0IDQGClO8AIlhzOvNH9POagdOZP4DUySi/hhKNdSJdDQHCuRw15hzPrxdnTM6ML7h8iwWyH+o9DtdpEgRhn9TjficV9GnrYcrfShfb13+wx+EoER5avRqLFt8eQCA+/9UPrsLWH37A/Hlz8cmnn+OpdU/gm81bIP7fb+GZZ57BwEGDUaIoxvvvv4/o6CuYPGkitv70M4QNtASsXvmbqPjCM0/h/Q830oDXr7/+CnPmNc/vQBbUPj17IOFGIiIjI7B3334aXNmRpdqCwOOZsOXpcvi6mcCIAiDqdbiBZgBgKtoN/c019bpzUDkZawrXwFSH05+cBt8f5Ir7gixW0NsFCP29Z6BSV0xdCr4O3VGuLUCI8yDsS96IMm2BVcPTJoDAcCCf9DD0WfHQplyGfNJjKP3jLfC9wyDtNRFmdRn4Pt2hOvsrNIlnreoHqWQVQPB9FubKaHDs+8NUsg9c+z7giEJgKPi6BiAYin8E12EsONJIMEJPmAp/BgEW+rTnYFZXWww4EAS8BX36U60CCE4OUkwb0w/f7zxJ3cEkw4DECBBrwYJpw3DyUiL0BgN6hwfg5KUEdA/xhaKkAv4+boi5kY70nNpD2JSRvXEpPhWjBoQj5kYGPFzkkIgE2E/2uSo3QyO55wYAQdS/G43XIwGMpHDEQogIgIi9SQ+5DQECS1zMxPKQnlfz3OSgLBraw5IdQeJ6uFxwXR2hPnQRor6OVhN9AAAgAElEQVRd6d/U7aE3wKSogGjA3w0gGI0QDe9FUZKpSs2Q6yAFL9gXhsRMCEJ8oL2SRB+YWBaIe4GIHBH1K1O+wjIQVXEK4qE9oI26YbEgcDgQDginSKnaHyMI86fZCxyxoEmAMHZwBMrKVYhOSKOL98y7+uPqjQz4uDuBWBfKKlQUKRLrgZ1EjOnj+mPn4YuYMKwnftl7Fjq9RRd8WN8wZOaXICOniA6+m5OMynrWBRHVM2gtQKiuz+Ny6Umv/6BB2Pbrb5g7fx61IBCAQE6HM+6ZiW2/b8PsObOREH+d+pbHTRiP7b//jpycW2+KbQEIRFTJYfxKqC7uBNfJG8LAvij76wO4LHgP6pgD4No5g+ceiIrj30KfaZ0qY3sABHJaDnMZCl9ZJEo0Oeji1I+abx2E7lAbyukCXqyu4/NrZqlrCBBuluoxcX8OdHViXYSMGR95bMQY8V/1WuHIBkMY/j1QN1WSnEqTn4BJsRsmE4Onv3TC5SQOVq9ejcVtAAhuLs44ceokHBzkFDDOnj0bN24k4tfffkVoaCjGjhmLkpISfPXl55g9vzYIkrwve//chcnTZtCNvL2KWqXC0MGD6Ibv7OyEqzExcHVzb7b5q1GXMHzEKBgMBsybOwePr32inlJSSEhoMymEbe9xNUDgcs344vFKhPjqwfBdIey5HwzfsU7DLAxZn8OY/V69m0VrB2Fp3npo2VoLAo8Bto7ywFAvSzrf7QAECV+GYf7zcT5zGyoNCpri6yYNwKiAB7DrxlvQmazLAGsLQODKPeB074tgtRXUosOROqL8wCbosm/QgxfXwRUu89+B4reXYCy2PtjcWoBgUuwFR9YPXMcJ0Kc+AYHnwzAUfFMDEIyKbXS9Z41l4MiGges4sSptUgtj/td07LkOo8Cx6wND9tutAggCPg9zpwzFqUsJSMsphKO9FLOnDMHPf57GvCnDcOlaCrQ6PbIKSqiFgewXxIJAirurnMpHG40m+Ho6o2c3f6RkFMDHwwkHz8TCRW6H+dOG49MfD9A9pHrbGt6/G0aSIMUmLAjCiCCYisupZYACBLkdRL1CqftdPKwnVPvOgTWaqKuAxCSwBhM49mKLxb0q9oCsg9Rafz2NHqipBWFYL3o/QWQXaE7HUPBAreoaPXW/W1vuiAWB1epo7AHpLEvMOhyGKhxqL8TDXKkGQVEkfoA1mmk9EuRosTCEUT8NeTjwuNDHJFPzSEMXg+FmNgTBvjCWloPv6QJdbCr4AR5NAgQ7iRDjBkfSCSxXqhER6ofdRy6ji587VFodrsSn0yBJMvYkJoEAhK9/P4qeXX3h7+2GIkUFnB3todcZcC4mCaMHRVC/lIujjL5IZ6qATt0JsBYg2NvbY8LEu6nLQEACX8Ri/LF9B1auWoUTx47Cxc0dYd264eK5sygqKkJEjx64eO48vZWzszP8/P1x+PDhW859WwAC8VXqcxJgyLe4gaT9plMlSLAWX6zApxv4nqGoOLYZRoV12Qi3AxDGBK1AgTIFJPsgqyIe1/IPQmtS0hgEUob43o9ExTkUqTKsUrZrCBAILngvWoHPEstr4mGHSdPwodtzkDENJGw5YvAD3wLPbWrNuJvKo2BIWknNo2VKHua8LIfWwGD1gw9i8dKl1v42a4IUCWAMCgqkcQNk08/MzKLvxqHDh1FeUY6pU6YgODgY+w8chItr87wDVt+4hYo5WVno37cPSsrKMWr4UOzau5+6w5or33z9FY2/IL8p4hYTVGVjVNc/evw4ukdY4nvaq1QDBJI6+9JCNcb2I5ZLDrhusyEIXF/jEmJ1Of+LbVoEVptW79Z6VoTPy57Ef8tGwlgVc7YoyB7P9XeGhGcJ+motQJgU+hgEJNCO4cJg0iC28Agyy2PRz3Ma/OSRUOpLEJX7p1WgtrqzbQEI0v7TYFZXQHP9pOX36xUC2cjFUF8/BmnvKTBrK6C6uBvalEutmg7rAcJfFjeCKBhmVQyEAW/XBwgVR8HzWAWOyAcwKmHI3wyz6gp4rgvAlY+kfWLVCTAUbG5WUvpWMQj2UjEG9ugCD1dH6ka4npKD1KwCLJg6rMbFUP3gBCAUKcoRl5yN7iE+CO/iDS6PS/eBS7EpUGn0GNY3FF5uTrSty3Gp1IpcN+b+VgCBIxVD2DfMYhU3mcAhbvX4NHpIJhs6CTAkeyRxJeguxlM3hLBPGAVQ5nKl5fNrN6nFvJGL4cw1ai0wlStpHB9HIoSxuNxiVbCydChAIL4VEzGdVJFUEPM/DTo0m6klgbgESGEEPHBdLKjeVFxa53O+pT6Hgam0kppWyN/k35asCAZcRxlMpRXgOtqD6F2zlSqYylW3zGIgKJLoc5Ngw0JFOcor1XTTN5rM1IJQXUQCPrzcHWvcBgQEOMntoFRpkFtYRi0HDvZiuLvIodMZkV2gaJKQw1qAQO5LyG28fHxgMhiQnp4Gvd6A8O4WHgUSnJaXm4vS0lJ4eHpAq9GirCpYkZwQPT09kZOTc8tc6NYDBAbCwF40JZI1WAKWuDIXMHwhjApLYCnHzhFcqRyGgvqL7K3ewbYCBHL0JJkl1cUS8V0/c4RE8reGdKmpIEWdicWRTBWiM+LhZTiGidI9kDPNWGcYAbjOU8Cx7wOzKgFmxW4aiU1e0d+OSbFpp4hmMbQVINATAtmAaYIPS084cgcHChBIsOqUyZMRGRGBPfv20fenowvJjOjXuw/KKytx911j8dsfuxpt+nX78OUXX4DQTDdXLl2+jMgePdq123WzGIZHmPDyAxUQ8MmawaWnUo58FGAsgbF4N6AjVqbG2UckGO6yfhzyBIPg7jUdw33lt5XFQN7LahBblxiMfFb9zraWQKctAIFmkjXgKGA4FjM0eddoH6zMiqo7aS0DBLpaVI11nfGm/an+m7zkZJ5IverI/epgY5KpVittfStZ65ayGKjcd1VmAMlYoz0ja2yDTKzqOtWZCaSOJXnAcoisLhySVUCGrdH1QD2AkJhhiRtQqmkwPt3/+GT/c7AEEpaUg1VXBYaS/c3VEYyQB7OiHObqz8kB29mBWgqIa8Ks1NBARBKjR4L3CaggFnhTUSkY4m5wkdPPyN5KYh5EhCPIytKhAMHKPrR/NbKgtpDm2P43bb7F1gCEju5X6wFCx/So7QCh/fvTFECovosq9VNwCj6wyhJRtYPXdDA+VYTnv5GiuMLCg0BiBxYvfcDqB6gOUvR0d8Mvv/4KiZ0dyssr8OCqVcjOzsbefftArE7jx42jYPnwkcPoHhFZr32VSgmp1M7qe1pTsVShwMAB/ZGZlQ13NzfEJSTQfjRXDu/fixkz76UxO8seWIpFDcYgIiKiXbkZSD/qAgRCHjdzqAkP3VMOPq/uRkRqtkyWxDIScCNPQSit65povQXBmrFtbZ02AYTW3sTK+tYBBCsbu81qJMtBEPwJdRWfie5cHoSGAOE2H+22Lv9bpDnqohKgT2zZ93tbT3qriwlAGBQB+Ljj57/O0DiBziq8/1kpVs8bD7GQh08+/BD5+fmd1RWKmJevXInQsFAUfLm8VRHK7d1pjlQOt+WEKMkN26+/Ql0GnVUkfAfMi3wLMlHjwLnWEiWR7UZRxsf56wJs2imGUmPZgAhA+M+qVVjyQOsBgr+vN6KuxMBOJoNWo8G8OXOw/8ABPLluLdY99Qzmzb4fh44cRffwbnj/gw8RGBiA0tIyHDywHwcOHMSixYuozHR7BSmS09O82bPxx86d1LWwZ8+fGD5yVLPTR2IWwkJCaJbNXePG4tdt2yCRtB9ZU1M3bsikSEDC9KEGTB2sRaCXATxuy8Cgut3miJLOZ2/DucxfrObb6Ij3e2TAEvT1morKk1tRtv/jjriFVW0yAhGc79sAccRYGAp+gIHEdDRIHbWqofaoxHOAwH89eM7TEZeUib0nrkKnbx2nQ3t0g7RB0ignj+qD8GAfGBIzoCVgpRV8Me3VD9oOh4GwVyilCrC2dIgFgVVpYUjNgdnQOZPCEYvA7+INRsBHXlEZrpMo0U6aFA9XOc25JZtzQX4+oqOiqK/qThdirPP08kLvPn1owJo+Kw7quGOAuRPmiKTi+XSHuPsYagIrVmcjSXEORtOdp8Mmpl1/eU/4ORAfeC0JTvX8nD22DTu2Nh0IVXcOxSJi+mdQqmSRWQSUKZlqz1oNQCAn/6W3CRBIY19+9ikeW/M4nBwdce78WShVakyZNBl5+fkgtMpSOyl0Oh0qKyrp+ZgAiC++/qaGibE93r2oSxdx17i7oNZoMGnSJOzYaUk/a66se3wNPv3sc0r6tfW7bzHjvlnt0Y1m22iKapnMrlQMeDuz8HRiYCdmodER192tuyIQivHSB/shEtfXs9Cb1EgoPo1yzZ0H/eS9dRR70awHIVcC1qCFqTQXxgpyGLIe/LTXJHAdPMBz8qbESxYCqkLA3HrWynbpD4doMbhRdxIh8FKqCN+NdURy7XL/Oo2QFEoS80BdECazxVVOaP8birW0942bak/IB8/VsVV6DB0CEO7Es9ruYRuBOzEC7anm+ODKlVi6bJnV3a52MRALwuUrMbCXyei1hAhp2pQpiIq+gjGjR+GbLd8iPz8P77z1Fk6eOgWlUgkOhwtvTw/MnTcPTz/3PA4fPIDXXn0Fzz73PCZNmXrb5EQkHmb50iX46edfQKxkJDuDtO3j2zQXQnxsLKZNnYqc3Fyamvv+B+9j9py57Qpa6g6sTc3R6tfMVtE2As2OgA0g2F4O2wjcYgTaEyCsWrkSD7QBIAT4+uDy1auws7cABFLOnTmDmTNmoLyiApER3fHX3r1wdHaGslKJ8vIyuvGStEiJRIzjhw9TFwOpO3P6NPz06280Rfh2CxFoCgwIoOmLxELm6uqK5595EstWrW5EgkTcEjt++xXzq6imSZZOaEgItmzejMjefW63K42utwGEdh9SW4P/whGwAYR/4aTbHtn6EWhPgLBy5QosW7bc6ptXWxAC/X1xKfpKPYBA0h2/37IFGzZsQGFREQ0WvPvuCRgxciRNeSXcGCSj5Y8dO3D23HmaATNq5Ah8vGkTgkOaVoi0umN1Kmakp+OxRx6mKZakEKBgZyelglHvffABZt5zb01ts8mEn376ES+vX4+s7CpqdS4XhEHU2cUFV69Zz9rXUl9tAKGlEbJ9bxuBlkfABhBaHiNbjX/xCLQrQFixAsuWtw4gdAsLw7y5c/HVN980KdV8PS4O8+fORUJibaR2w9QsMn2rVq7A+x9trCf81V7TStgdf/huC55/cT0UiipiM6BZuWeSprvmkYfw+7YdNcyfHa3meDvPKpFIcOjgAaqDYiu2Efg3jYANIPybZtv2rK0egXYFCMuXY9mKFVb3gWykO7Ztw7wF8yFuECBXtxGlshJ79+xBbGwcoi9fRFZWJnhcHtXs6NotHOPGjkGvvn3bRYPhVp2vKC/HsaNHkJaWDqL0OGXaNERGNs1vQKwJWZmZOHr0KCorK2lQ5ZNPP2312LRU0WZBaGmEbN/bRqDlEbABhJbHyFbjXzwC7QkQVixfjuWtAAhtGfZqiXCLsjrntoMR29KHv8M1/1qA0IAA6Y7NRR3yMnpPlmRq3flsCsvzcupRnxMipNYSULXXuBESLJrBUF1INl1nDQtdFBpnat3qWTsEIBCGKGNuEVDFR91eg21tO4xYAJ43SXNhoCirxPWb2dAbrJP+tfYe1tbzdndEWKAXXaiJ+TXmyhWq0HinC7m/t48PIiIjKWWvQZEJXcplMJ2xoDAMpWYW+EbSH25uxQ2kll6G2Xzn0z/JO+JhH4Iw56FNTsn1C9/h4uF3W5wuyv/GsqjUcBGbIkB8BoMqojR6LeFBWLFsGeWhsJWOH4Em0xwZwNcF6BdmhKeznpDLWVV4fDHue/gYRJL6ZFAqQxniCg5Da6gvKGdVo7dbiWEg5tkjwn0cCI+HoSgdqkt/wKxpLDd/u7ey5nqegwfsBs0Cx84JZmU0DDmfACbr5d+tuYfVdXgO4PusBUcSjtzCUpy4GA9t3R+j1Q3dfkWiHjlqUHcq5GRSlFMRpmoG4dtvvXUtEMZiQa9QcOXNk5o1bLFDAAIRmtDHp7au9+1Zm8MBEXViPV3wy54zSO9EoiRC5/zwwrsh5HPx6caNNHCsswoBCQ+uXo2g4GAUfrMaulZyrbdnv7kyV7gt/wJGuRN+jXsBCrX1ojDt2Q/SlpArxYJe71KRp4altURJ5HpySLh4XYq3fxaisNyC2AlAWL5sGVbYAEJ7T1+T7TUECAIeMG+MCYsn1mVTtK4rzRElnc74ERdzdljXSAfVGuG/EP28Z1DxtMozP3fQXaxolihETl4L+yGzoUt+EKbSQ1Zc1HFVeG7zIQh4BcfOx1Olxs4q5MBO1CJHVIs1JRJ9mM4r/GA/iAZ0s7oDHQIQiLqiIc06qV2re9qaijaq5WZHy0K13AP5H8+FodB67YTWDL81df92VMuRr8NVGtguAKG6kbRcPl7cbI/0AsYCEB54ACtWrbJmeGx1bnME6gIEHhdYe58WEwep61AtW3cDAyuGAQ7gR+6FzL6+zkVrxZqsu2Pratmolpser5a0GFo3ym2v3UjuudMBgk/nazHoLifASE7tVFyG6IKYwWp0VJSCERKmLVDdaiJdSex8DJ9bT7iCCmMYTWB4VfWJDobOQIUoiEAFFbmo1tsmf2v1lnZEAjBEElNvhLBncJNqjmSqyaleIhZSsz8RvtHpDBAJBRAK+VSEg/islGot9R3ZSURUzInUJVrfROiJiDqpNDoagV33c73BSD9vWFqjxUDa8/LyQnBoKEh0eOy1azSIy8HBAV27hkFqL0NGaipSUlNBOOwTExNpSpu1pc1aDAwH0t4TocuKh7GIKF4C4vAR4Ln4URUyTeIpGIutU3Ik17YVIATK+2BU4BIUKtMgE7kiqzwOl3N3Q8ARYWb48yhWZUBlKMW57G3QGWuFt241Pk1pMagNZmxNrMCR1Dw4mFKx0OEX9BWfBwdNuKq4duC63AOutDvMmjSYindQJjnyiv552g7v/Ca0AQRrX9B2qlcXIIzrY8JLS8rBYYiknQhc+VhwHIZQQS1T0Q6wmuRG/nIi1BSr7Y8NxQ8hxeACd6kEG/o5Y7SXlDDW0tJagDA97CmYzAYIeVIYzTpczt2D3Mob6OFxF8JdRoFlWGSXxeF8zjYYrWQ4vR2AYD/4Pgj8e0Lx+8uAyQihfyRk41aC4QnAKstQ8ud7MFFmRutKa7QYGL47+L4vghG4kMUd+qz3werSwHNfDK5sKBiGB2PZEZiKfgff9ynoM14Cw7WHwG8DDIXfwVx5a6XJWwEEqViIkf27wc1ZBoPRjKi4FGTmKbBoxgiqyCsSCVBcWokj5+IwtG9XFCvKcT01B92DfajEM4krKClTUstEZJg/uvi6o7xSBbmDFDcz8nE6qm5GUa1YkylfAVanB8dRBlalpiqNurhU8AK9wPdypQyHpqIyan3niAUQDYyA6vBFyrrID/AEUX7UJaSB7+0KfrAvWCKspVRDF5sCUe9Q6OLTqMIjIyRyzz2o3IEgPJDWIerIdFvNV1BFZGtLh1gQ9HEp1N/CD/WDMS2Xqk2xegME3QNhyi+hgIDr5QrdlUQ62Dx/d+iuWbj4BcE+MGt0VKFR2DMUZqL6WEcGk0hVaqNu0PZIEJZwQDi05+Mg6B5EFciIPDSRlCZUy2Z/T2zdeQp5RaU140E2+TGDI5BXWAqd3ggSI3Ah5iYiQn1BXpy07CJ4uTlS7m6i4TBldF98s+0Yenb1g9xeggJFBVyd7ClQOHbhOvw8nRHg7Yp8RTk0Gj3ScooaqSm2BiDIZDLMnjsXhw4coDEUhMeey+Vg7Li7cOHCBWjUajg6OiIhIQHTp0/H/v37oFJZpx1PBqGtAIHv0QWOM56BIT8Jpbs/BFgTHKeuhSp6L8zqcpiURIWTSOpaV9oKELo49kNX1+HYl/wJVXUMcRoIb1k4khRnEO46CsfTv4XBpIWJBklZVxoCBBJD9E6UAl8lVUBfRYnqzi3DJo830UMYVb9RrhyCkI/BlQ+uCowyw6y8AX3iCrD6PFSouFj8hhNKVaBCRStXPWhdp2y1bmsE6so9v7JUg5G9yG+EA57PWvC9lwEcizw1q82GPmk1zKq4evdL1Ydiad5byDfVklPJBRz8OtYT3Zws17YWIEwMfgSHU/9L302Z0AWDfGfheNoWED0FIvNMyt3BD+OPhDdA4husKW0FCByJA+RT1oAjtEPl2V+gS4mC/fD5MKtLoE2+BKd7nkXl2d+hTbLIyVtTWgMQuM4zwbUfBH3mejAcEQ1q5LrMJidHGIu30/WFIw4Cqy8A3+9FChD4PutgKt4Js+pqiwGQzQEEsm7PnjQYZ6ISkZFXTA+LZF2vUGqwcPpw/PLXOag0WgzpHYbSChUFEcUl5XQtdnd2wMnLiTAaTfDxcERkqD9ibmRArdVRwHDXkEicvZqESiLdXFXqWRCiE2FIzoRocCT0yZkwFZZB0MUbLJFxT8ulB2m+jxu4RDr6ZjbEg7tDuf8C3dcEQV5gpBKYFGXgBXlDR/bA/2vvKsCjPLb2+61bNu5KBE+A4FqgFKm7+y23VG/l9tbbq1Woe0vbW6F6q1gFKO4uAaIkQNw22c369/9nlg1JCGR3s8kmMPM8tJvdb+abec+ZmXfOzJxjsUGi17D/07x4QrjnjXvYIpvNpYNS4aSFtCgG3oLg3mIgICzbD7KVv3rSUFj3FLAQlJQoPKW8Txxs+YchS46BZWce+17RNxFOowWSkCA46wwuSwQlQloUoZ4whDEsdtBDKoGC4mBvzoFq5ADGoFinbzJDmdW+BWHyqIFMoJt35bPDpMeKxcQR/dnqf9veQoQEaXHZjFFYtm43Zk4ahu9/24hZk4bhy8Xr2GEXWuVPHTMQ+cXlGD4oFdv2FcLUZGXWiPrGEydJbwgC3bW++pprsH7dOhbWmf6NHj0alVWVOLC/9V33Sy+9tHsIgkSKkFn3wJy7Adrs89GwdgFsRw4g5KKHYK8qhNPUgKacNSzGvKepMwShX+QELDn4KjvgqJUHY0b63dhXuRJDYmbCIdrQaKnBiqIPfbYgNFicyP7uECxt/KXfol+FRyL+2aqJFDZYOWB+6zgOohPW/L+x1anTKeCx90KwYb8Mf7rlFvx5DicInupIZ55zEwSp1In3HjQgLd4GWrUqh/0GQdo6uqX9yEewFf+r1et+M87CfeX3w87CE7sSfZo7JhKXp7kOeflCEH4teIdZESiNT7waxfW7kKAfjLTwUWzSqzIWY1nh+4zkepJ8IgiCgKCxlzFCS31aN/5a1P74ItTpwxE88z4W10GQy1H1+cPNId09qYs3BEGQRUDe5xnAaYKjdgWc9SshT34CtqNvQTQfP78mSPVQpM4DJOpjhx9f7pAcUF1PRhDCgrVs0ffZj6vZoWKKlRAWomOk4MaLJmHhim0wmi0YOTgVh45WISEmHNU1BqQkRmP73kJGKtzp3ElD8cemfTCZrYgMDcKwgX3w27rdrRaIJ2wx5BZDPS4L1oNEEGrZvEWfnfUuaydZwdXjh8C6J49N+m0JAoXpdhpMsBUfj/8hSCVQjR/ishKwcM8CpME6GJesd1nd1UpoJmfDtGIrZAlRPY8gEANSTx0O8+odcB5jV9Qo5fD+sB0ohizlRIIgi49gJhIymbRMmrOyYa+scd2QEABpZBizKGjOHgnrjoMABaRIimFbGs6EqBMsCDTxb9mVj0OlLocuY4ZkoPBIBfqmxLKgGgUl5UiKjWAWBDIXXTB1BH5duxMjBqfim6UbmgNxkbmJCMaE4f2xc38RauuNGDYwBb+s3om6htYrem8IAtVJq9UiKioKiUmJCNIFMde5NdU12JeT0wwFkZTuIgh0oDDs8idh3LIQ8tgMUCTGup9egKDUsWBLqozRkMekom7xmyfEmT/ZwOIvgpCgH4js2POxNO812BwWUBAbGnhzazahrJFMxx2nthaEerMDw78rhrVNgK8b9WvxeMTTrQqUUljZfq+3CfQkwlbwJOzlCyCKAv7xcTD+2CnHrbfcgts5QehYIH54wk0QZDIHPvybAUnRdgjKBKiGrWh1BY5eZa/8Hra8B1u9dbVpCu4ofwQ2Udr8vVQA3psQjXOSXJEoO0MQyHI6I+MurC/+BmMSLsOywg8Y4Z2Zdjc2H/0RFUbPDnn7QhCk2lCEX/88bFVFcDY1QpWciZpv/wXt2MvRuPoL2OsroB02AxJ1CBrWLPBYGt4QBEDGVmeCTA9J0DgICgr0pIXDuAPOumWudwq0ZayCsu+HsB6eC2nIZDgbtsBR93uHdToZQSAL8vUXTcK3S9ejpt6I4CANrjl/HL5YuBbXXTABO3MOwWy1MYtCfkk5powexLYddBTlCyLWbc9lBECvVWHa+CxGKBwOJ86fmo09B4qRX1LRqm4dEQTFwBQ4G5pgLyln+aThwcwaTnOZeuoINC5cw+Y6Rf9kiBTkz+6ENDoM5k37XNvs7CozoBqXCev+Q8e3GMZlwbR8CyMItBCHVApbXgl6RLjnEywIVhtU2f1YJCtb0VG2NSBLiQVdu7AVHIUyKw2WY/s2yiEZsB0qg0Svdf2efwSiwwmJjhhkE9RjBsO8Jce1xUAkY/QgWDblQDVmEJo27GERHLXTRzHzjSMu4gSCMKR/MmLCg7FySw5sdgcumTYSW/cWIiEmDEFaFYpKKtDYZEFJWQ177qJpI1nI6PMnZ+P3dbtRWdvAnps8agA27MzD6Kx0bN6dz/asLp0+Cqu37GdXa1ombwgCeZTr168fC41LLnOzhmRh2W+/45zp07Fp40Y0NDYiPCwM+/fvx8WXXIxdu3azEMAUrezokSNwOE59ndOXLQbdmEtBJkl7hWvQUg2YhMb130IWnsTOIyiSsiDRBcOwbL7HoUx9JQipodkYEX8RdkvcNxEAACAASURBVJb9Ao08FDHaNGwt/Rmxur7QyPUw2Q2I0aZjXckXaLDWdDiQ0ANtCQKtLB5bV4kvDzU2B10LllrwetTzGK1e1XoAUKVCOfhrCPKw5u9pb9u671Y4G7fCahPw57kRKCoHbr35Ztx+xx0e1Yk/1DkE3ARBkDjx8p1GDM0wAxINFP0+gDRkzPHCnRZYcx+Go+anVi80OKNxf9VLWG+MhkN0HacaEqbEB2fFIErjIg3eEoTz+96PvNotkAgyxGrTUdN0GDvLf8PE5OtgtNayvhMb1I9ZEEy2eo8A8IUgqPqPgywkBsYti9g7lKnDoEwZAntdOWRhsXDUVkCVMRINa76ApWinR/Wgh7whCBL9REj1EyFaCiCo+jDrgNO0n11PdBp3siizgjIF9vL32daCtegJCNJgKPq8ANvRN+Bs9P0MQnJcBIYNSGFjvFolR0RIEJZt2IOrzx3HrMQttwimjBmEqmoD9hcexbRxmYw40OKRFpE79hehoKSCbUOcNWIgfli2mc0pLVO7BIG2GMiCUFkHQaMCzXnO+gbX5B8RDMu+QjgNRigz05k1gM4qSCNCYNmyn5FI1dC+bOKn+VBK5yhy6axBqusMQl2DywoxYSiaVm5jcyezrm874CIL6T3gkOIJBMFsYeYPeUYiM3FQ2Evyk8Amf7sd8uRYyNMSGK62Q6WuGxAUErhPHGSJ0Qwkep4sCurRJxIE8/o9kMVHQjEghZVNezHypBg4k2NOIAi0n9+/Txyy+iVDJpOgvLIOa7cfRPagPs1bDG4Bx0aEMILw3te/IyxYh5GD0xAdGQxDgwlb9xSipKwaocE6TB49kJ1fIH8L23OKGKP0lSBQONyUlBRodTrGVIsKC2EwGBAWFob4+HgWBKe+rg5FRYXMpz4dXiRLBh1o3LtnDwucc6rkPUEQoMoYxQ4nimaXNUdOBxOlUkj1UZCo9RBtFlgKtsJp8exQIJXhK0Gg0LbBquhmxycGSyXbSpBK5AhWRrH/02Dr6QDbHkGg72rMDnywuxYf5jUgXunEPaEf4mzV/yBD2wOhEgi6oVCkPQOJpi9ESzlsRf90XfMS7diTr8Jdr2mZZeOWm2/GHE4QPJ5wOvOgmyA4RCdum2XBTbNcuisokyFPexbS4DEQnVbYiufBUf4Z4Dxxa7BeSMUfskdRpRiGMKUU05N0iFAftyh4SxBC1bGQUShiCDDbG9ForYZTdDKCGqyKYfVrIH12eH6myBeCIA0Kg9Nihmh1vUeQySENIWJQCmlINASFBk5jDRwGsrJ67tXHG4JA2xuCPJZZEESHCaL1sMu5kkQLiTKevHzBaTkKOI0QFLEQ6TOcoK0JSGQQracOsd3RLQYar8libHc42FkD0SmyrQayBLcMDe1+pslsZQeNQ/Rati3RYGxiWwuMYCnk7CwDHWxvm9q7xUCLXTpYLx4jEzQ3Clo1O2DPztC5fTYIAiRBGrYQJss7LYpZkgjswCJoS6HJ6jr4qFWxs3ssxvyxfEQsiNlK1Co4jS797lEEoXmD341aS09ObeNhE5Ls1kMbT1N0ZJh01G3udR8aaC7TdTbBpenuMgDViP4nvcXAMGZHkQU2CdO/9vzXu5+jWw2u4gV2gpn+cn/Xsiy61dBe8saC0JlB0ZO83hMET0r1/hlfCYL3b+o4R3u3GCgXib3x0CeQlM2FRDSStpy8MImKxaAXbTVsUCMtMTZJ8O9P9Vi9W8oGl1tuuon5oeCp6xFoeYshJkzEvDsakBRN54fYjAhI9a4JyUFOjk4hV0EBURoC6eBfoFQHt6q4twShK1rtC0HoinpQmV4RhK6qxLFyZbT1l/46lq/fg7Xbjp/d6uLXnlA8v+bYDuI9xw9CHD77cdUJJv/uVpK7rp8BjVKGeS+8gLra1tsP3V2XG26+GVmZg1H2+rWwlXu2z9kVdXQRhHfhiIzFl7sfR605cH4z5FIVrs18DuGaxBOa6oujJCrEZJbitW/1WLpFwo7LcILQFVp08jLbOkpKiBTxj5uN6Jd04jXkjmp2MkdJKwrnY3vp4o6yd+nvYxOvwtjEK3uGo6Tz70fQ2KthLXkG9lI6uBu4RNsS8rg7sGFnLn5f2/rgYHfWihaVMyZmYWRmOqz7CmDZ4dm5qK6qI21nsBt/HqYuueZoP1LBDh82m0Q8rIy/HiNfC+RSkm5CbNlTgAMFR0+4euivd3VUDm1BzJw4FFKpgHVr1mDv3r2gQDXdnVgY3iAdLr7kUrZ9YVj1CcwH1nh1NdF/dRYgi+qD0HPvAzR67Cr/FYU12+Bsz8eA/1560pKitKmYkHQt2wZom0r3fICju+Z2WAuySJEhy2QRUVojw3crVTh49Ji56ZgnxZtvvBF33HVXh2XxBzqPQHuulvVq4MrJNvRNskCnFqGUCcwi21ESpCoMvOAPqDStLQg1TUewrvgLr7YEOnqXN78rpGpGDiI0yYzsG/74CAiEu3KyyGpDoT97NugApOhohL38E3ZFMRCJDqOSJ0VBqgFtDWzZk4/GFlcPu7NO5G9n9JAMqMjHjtUOW24JnCbPr4P7s64SjQryfslsu9/T1CUE4ZgNnt3rDESiQ5B0BZISbR842BaB53tp/qwz3dV3B+tgdXE4AkJWyLIqkUpZHAaWnA6IdnI45bm/AP/hIgAyBQSp3CUjiHCKDo8POPqvHq6SJLQf2g45oN9++ul7vPD8Mx2+0k0t7E6Abhq13UEjCwInCB3C6LcHThasifoBjY80PNA/T0YFiqT508KlUKnoJHvrRHorBiKeCdvylDDdbU5svPWkRX6D+XhBbHvXw+AWXfB6XmTXINA1BKFr6spL5Qh0OwL+jOZ484034I677u72NpyJLzxjozmeicLmbe4yBDhB6DJoecGnAwL+JAg33XAD7rybE4Tu0AtOELoDZf6O0x0BThBOdwnz9nUKAX8ShBtvuB533X1Pp+rDM3uGACcInuHEn+IInAoBThC4fnAEToGAXwnC9dfjrns4QegOheMEoTtQ5u843RHgBOF0lzBvX6cQ4AShU/AFLDMnCAGDnr/4NEKAE4RuFCY5V2K3GLrxne5XsVsMEgmLDEnJ7hSbIxV2f3UEkF97Jf0H5PzLBpvTCrvoedhqf9WZvNrRdTFyltRe8idBuPrKK3mwJn8JroNynnrqKaxZvQb2Njep6LA93WIgh2dtfa6drEiNRo2Fi3454RYD3V6wOpuY7nZ3Ir0lnaV/dJuB3EE32Z0w0TWaACSNTAL6xxzJiSIsNjtstu6/zk1NV8ilLNqu2/ldAOA4bV7JCUI3iZJcei5asR35JWXNjh+76dXsNTQVk0+GK2aNgU6jwtNbqvHTocZml8XdWxcB6Xo5Xh8fjTClDUtyX0FR7faA1IXaHaaOxxWD/gG1/HhoXzcea5d9ja/++3yH8MhlLi+nDU1AcYUUNQ2taSDz4CeKkLAPPHU1Ak4ShlTSqq+Rs6SLxlkxJM2KYK0ImcwV862jJEjUiJ9KfhBCWj26q/w3rCz6uDk6Y0fl+Pt3mUSOaam3o3/kJMzfX4/ndtQwohCIpJMJmDc2EuckaLFxZy6LcmgPEFkht8fknGhI/5RAQHFavZMThG4SJ4WYfmn+woBYD1o28bIZY9A3LQ4zFh1Bbn33r3zcddHJJfhqWizSgpqYJ8U686l9q7cWU8tJtu2I6P7N85HyZK6W6Z3eelIkZ0kGoxQfLdZh4UYZjrlr7yYt4685GQJ9YkQ8N7sB8VGnjlXSXv6TeVL0zdVye/rZljR6rrtuV8sPrK/EtwXkNjpw6b7MUDyQFYqvFq3DwaLSwFUEwMD0BFw2Y3RA63A6vJwThG6SIhGEefMXdtPbTv6aS6ePRr/0eI8JAg1d12foIWOxK1zJYndie5UZOfU2tlUwNVaDlWVNXm1Z+EoQorR9MDhqKgt0QwFuyhrzsbdiOXO0lKgfjIzwMezz9tJFqLe0Dr16MlT8SRDc73A6Bazaocbcb9Soax2xPOA64K6AUqFAfGws+7O+wQCj0YS46GjY7DY0NBoRFhoKu92OOoMBEWFhMDWZ2N/6ID2OlpUiSKdj4ciNJiO0GlcIZIo2KpfJoFapUN/YAL0uiH1fVlGB6MhIZvatra9HaHAwnE4HauvqEREWCqOpCVabFSHBIbBYzLDZ7dBpdairr4dCLodGo4HZ3ASFQgGJRMqiner1QVAqXFtDldXV7N3tpeRoJ16c04i4iGPkQFBC0AwAbLUQrYdOKY8qRwpybcOQlvkkkiNaWxC8JQgDIycjSBkOmUQBlUyLnMrVKG/Mx6iES2F3uFxAaxVh2HzkexhtdR7pSWcIwqwEDWK0cuZIbm+VGdvrrLgoSYfNlWYcNtmRrJUhK0yJpUdMsLX1/NVO7dojCBTYKCU+AmGhepRX1uJwWQ3b5qTVPQUnMpstOFBYyqIgpiZGoaS0GlabHSFBGvRJjGKB78gTLm1ZuJNOo0RibDgOFJSCIq9SUinkiAoPRnFpFft7QGo8Lp/VImqnR2jyh9oiwAlCN+lEW4KgVMgwZkgGEmMj2J5dydEqFj565qQhUCkVzCMaRRVbvn4vi1memhiJFRtzkBQbjjFDMyCj+N52O9ZsPYDSyjpWBsU6nzp6ENbtzIXVasP47H4s0lhcVBhWbclh0Sa9JggCMD5chbQgOa7uq8dLO2pgFYE5A4LxxJYqTIpVQ6+Q4vWcuhO8B54KWl8JQlroCPSPnIhf8t5gkRtHx18Oi8OI/JrNmJB8HVYVfQqzvYFFy2PeGT1I7REEGhAL6204WLAaMcZPkCrbAbVwkhWaIIegzoBEMxDOpgKITTksOiBtf/93qQ7zl7R/vsGDqnXpI8lJSXj80cfZOw7m7MOipUtw7733oby8HEX5eRg3cRKqqquxY+sWTJs+A/v27YNSLkNaRl+s+P1XJKX0QVp6BrZt34bsYdmsnE2bNyMxPh6xcXFYuWoVzpo0iX3/xYLPcMWVV4OilS79ZSlmzpgJi8WCgzl7kTk0G4UF+bBZLOg7YCBKSophqKvDoMwsHNi3F1qdFglJKThUVISo6GhQSPRPP/sUZ0+Zgrh4VxTYhT/9gJ+WLDkBL9rRufMCC64551g0R01/KNLmQqLJoB4GR8X3sBU/dyxo0/HsTkixwjgRT1c9gBqnGkFyKZ7MCsMlGUHNZNlbgjAx+QbkVPyBWksZ9IpwTEq5CSsKP0Rm9NnYcPhbEPkdk3AFFh6YB5vTs5gRnSEI746NwpISioQKXJOux/v769mEPCVei3/uqMHjQ0KxuNiIjdUWjyyfbQkCkcGzRvZnhLGsqg4xESEoPFyBsso6zJiQha17CxEbFYqUhCgsXL4V0ycOwe/rdiM8WIuRWek4WFgKGicTYsKxZNUOFm2XCMeU0QOxO7cE5VWukNg0Fk4ePQD5xRWsfE4Q/DdscILgPyxPWVJLguDqOANgaDRhT+5hxoKJMdc3mHDeWcOwY/8hxqST4sKRnhyD/EPlSE+KZp2CCMCiVdvR0GhmxGHWpKH4ZfVO1DYYMXF4PxaYKvdQOSMMtN/dr08sQoO12LQrH3aH02uC4G5UZogCjw0Lwy0ry5mlYGyUCg9mhqKg3oZ/76xBnc27w1GdIQj9IidgycFX2ZkFGminpd2JSlMRYrRpqLWUQiFRY+OR/6HaVOKRdNsSBFqTvLO7Fu/uN8Bgc0AhODBdtwtPhf8HWqHNyk5QQp78KKSRF0GQ6iA6zXDWroK14FHAYUBFjQw3PBMCo8Vzs7FHlfbDQylJKXjyiSePEYS9+HnJYtz3lwdQXkEEIRfjJpyFquqqYwRhJvbt28vIa2paBlYs+xVJyccIwrZtyM52E4SNSExIQGxsPP5Y+QcmnzWZlb/g809x5VXXMIKwZOlizJp5LqzHCMJgRhDyYLdZkdGPCMIhFtJ8cOYQRiA0WjdBKERUdAwjCJ98+jGmTZ3WTBB+/vE7/LBo0Qmo0NmQV+8yIivdDEh1UPb/BBL90BZMwAprwVNwVH7dKm+OJQs3lf4b9U5N8/dBMgk+nxKDoVEq9p0vBGFvxTLUNLkCkw2LncXcNO8q/50tCCb3uRX51ZtwqH6Xx9LtDEF4Y1Qk/rmrBhVmBy6I02BAhApz///vO/sHY0i4EhvLzZifZ/CIHFCF2xKEmPBgDO6biOUb9rIxjsY9+qdRyjEuux9+XbuLHRS9+OwRWL8jF+OH92cEYcqogVi9dT+qj5ne+qfGIS4qFCs35WDs0AwWVrngcAWLr0C9anRWOixWK3KLy5tjLnALgscqdMoHOUHwD44dltKSIJCJ7eKzR+KH3zcx8x51kohQPeobjIwg0ARPE31yfAQ0KiVKK2oZQSivrmdBPzbuym9+3+SRA3CkopaZ7fQ6NWPQsRGh2HWwmMUov3DqcEYUlm3ci5q6Rr8QBLNTRJxaio8nxmBpiRGv7a+H3R1yu0MkXA/4iyCEqeMwKfkmVJmKEKqOx+LcVxGry0B62Fj8UeRZRLm2BKHEYMOURYdbbZmoJE68Hfsyxilbr1IluhFQDv4CFN++OYl2WA/cA0ftL3A4BDz4Zji25HpHEFQKAfH/H4Gw5ZlGpyigpAyw+ekk2plAEFQKER89XI/EKAcEVTJUQ5e7ri+0SPbKn2DLu6/Vd78Yz8P95ffBwY73uhJ9emF0JK5Kd22bdJYgjIq/BA3WGuRUroROEY6xiVdgWcH7Hlu+qA6dIQhvj4nEZwWNLIz5/YNC8e7+Ovxa2oQLE7R4JDsMf99cxf72NLUlCBnJMYiJCMbqra5wy3GRIWwbIO9QGaaOHYz123MRFxWCjJRYZiGYOWkolm3Yg+njs/Dz8q0s0BKlxJhwjBjcBzkFpcgemMKIxfUXTsLXS9exQ6ijMtNYWWRF+G3tbtQ3mtAvJY5vMXgquFM8xwmCH0D0pIi2FoSZE4egoLgcB4pK2eR+1bnjsGjFVkwdMwgNjU2oqTeyfbe84jK2RZCRFI2Dh8rY9sL/lm6EzeFg5rcrZo7Bjpwi1rkqagyg609qpZyZ77buKWBlU0dNio3Ar+t24eJpo7w6g+BuW0sLAl1P/M/wcCw8ZMSsRC1WlTXhu2K6EeF56gxBGBIzA+tLvkaIOha05ZBTuQrVTYfZie49lcsRpemDuqaj2FVBK7OOU1uCsO6wCdesLGvVHpocHov4EDfqF7QqUBp+HhR9Xzs2fRz/yVb4NOxln7IB7N+f6vHLZldgKk/TiP5y/HOODVLpcVQtFgH3vihDUbl/AmydCQRBKQfeeaABGQlWCPIoKIcshSBvfZbAdvgt2EtaR+zc1DQOfyp7ClZR1iwyOm/z8aQYnJXgsip4SxBoS6Gs4QDb/orU9kGUJgW/F7wPm9OM0fGXsZDnB6vXe6oi7LnOEIR3xkThm6IGhCgkuDQlCLevq4BGKuChzFC8s78eDw4Owd+316DC4tlWXVuCQOPTrIlD2TZoVV0D0hKjEBmmx56DJZg2PgsbWehjEdX1RjidTlw0bSSzIGT2TYTZYsXWPYWQyaSMTOQVlSJYr0VUuB4Oh4jhg1OxaVcujCYLwkJ0bGuEFlFkkd28Kw8p8VGcIHilSe0/zAmCH0D0pIi2ZxBC9Vq2l1ZRbQBdgYyPDsPSVTswdcxg1xZDWXVzsSnxkewAz4qN+zAhux+0aiXrcNTZKmsMjCDI5a4JKCZcj5jIEOQXl2NAegJMTRbERoYgt6gUOQVHfbYgpOrkuLGvHs9sr8G4SCWSdHJ8UtCAKKUEt/YNxuv76mD0YmXrK0EIVcUiI2LssVWWgMLaragxHWbbDaHqOKSGjoDRWou8mo2we3g/vS1BONJgw8wlR1DfYtskSGLD27EvYKRyRStxS7RDoRy0AJC6zM4sOS2wHrgTjroVsDsE3Pd6OHbkn5w+0cG7a6+6AirV8TJiw0SMy6yERDiez+6QYPm2SNQbj78qNy8PK1auZgOsJykoKAipffqwQ35yqQyPPPwoy5Z7IAeLf1mKu++6FxUV5ThUmI8x4yaiuroaO7dvxdRp05GTk8MOg/VJS8fKFb8jMSkFqWnp2LFjO4YOHcbK2bJlMxLi4xETG4fVa1Zj4oSJ7PuvvlyAyy6/km0x/PrbL5h+zgxYrRbk7t+HQVnDUFSYz7YY0vsOwOHDxTDU12PgoEz2O20xxCcmo/hQEaKioqFSq/H5gs8wdfIUxMbFs/IXL/oR+3PzmK+PvLw8dn6HEu2vP31jE6YONzESJ4u9DbLEeyFI6VClE05TPmwH74aziSar48ns1OEf1Y9hcWM2zKIMKqmAKdFqzBsfBZ3C5UvEW4LQJzQbEZokVg+TrQ55NZtgsdMZADn6h49Hfu1mmO0thOuBQDtDEB4YGIKP8gxosDnZtkJevQ3ZESr8UWbCmgozzo5Vs0OKb+TU+3xIMS4yFCOy0kCI0ThHC5c6g4mRgE27j1tC6WzBxBH9sWVPAfMVMzIzHeGhOrbgIYsDba/Stikl2qa46ryx+GnZFpiaXFYGipY6YXg/rNy8nz3Htxg8UB4PHuEEwQOQ/PFIe7cYaAsgSKtmFs9GkwVWmw1BGjWaLFZ2qtedyOkHOf+gZ6hzBGlVzBGIxWpn+3HujkPPU5nEus0WKkvFDimarVaWl57z9pCiuw4sTK5EYAOFTCCjpNh851ouEZjjpe6wIPhDFm3LOOEMgggsKmrEw5uq0GB3MtPytSFb8LfQf0EltBnABRmkkZdD0edpgJwtiQ7Yy76Erfg/gNOMo5VK3PCMDpZTLPq1/7/H/sF774Am75ZJEG2QWAogcVTDKY+HQ57QeisDwLq1a/DCvJdh9+RCP4CxY8Zi7osv4suvvsS7772H2JgY9kqz2Yz6+npER7luMZgtFnZLwWG3w2gyQa/Xw9xkZrqqpBsKBgNUCgX7bDI1gZwJUTIZTZAr5IywNjY2QqfTse+ra6oRFhrG9JfyBuv1TB+bmiivhh1YpPDwNPnTbQaH3cHOGpibmliYciJRVqsVcpmcnX6vrqmBPiiomRg3GAx4/rnnoVWrMPuOO1id3Wn8QBHPzql1kS1BAYk2E4ImzXWQtGEnRAudVTlRey2iFrutmThqj0R8xlMYFhcKrfx4SGNvCUJX6G5nCAL1Z9ripJaTdYRkQ5eV7A4RRK/oM/V16vOe9O2TXXMk0kZl0TkEchZHSSIRmj+7caHn3ESX1eXYzSmyDrRNZBlt+33L/Jwg+EfbOEHwD44dlsL8IHy4qNVk3mGmLniAtiQyUuMwY/ERHKwLrB+Er6fFITWoCV/tfhy15sDdm5ZLVbhm8DOI0CY3I07jWJHBiv15CxFj/BwZsn2QCSc7WS5AUKdDokyG01oK0bSPTThkPXjzez2+WXncTN2eSNsSBCIEcuMqyC3bIMqCIEoiIHGUAQ4zrOpxsGkmQpS4rhV6SxDGjRuHV19+BQsWLMDLr77SBRoWmCJpwpj/3geMINwy+zY0Go8TBIkEmHOeFZdObgSdSfA2ncwPAp0X2Fm21Nvi/Pr82MQrMTbxKjyysRIL8gLnB4FI9ENDw3D3oBB8u3QDcvKP+LWd3haW1S8ZF00b4W02/nwbBDhB6CaVoBXeN0s3MHNZoBIdYrz18inManH/+kp8V9Dg0cqgK+qbqpdjwdRYRKtFrDz0MXaV/Q6n6J+9de/qKyA5JAsX9X8U5JmubfLWUZI7P1lDf92kxcvfqtBoPnWNWhIEwWmBpuYFOIPOhkMzHCIzhZP/WicEpwFyw2KI5jI0hc2BKMg5QTgG7akIAj2ikAEzRjhx23mNCA/xzlnSyQjCobqdWJz7MppsgZmYNXI9zu37AJKCM7GwuBGPbqxCvdWzrSbv+kjHT8dpZXhvYjSywpXseiKZ/8kSGohEnmIvmT4KtDXLU+cQ4AShc/h5lZu2DeoMRlit3T8RslsOQRrmK4GS0Sai3GxHnaX7BxQyUydoZYhQSZn5nvwVkO+CllslXgHbyYcVMs1JYzE0Fb0JlM7z+A2NJhlyD0uxbJsKizfK4ImomwmCTgV19cuANgv24AuPvVOE4DRDlND5BCIKNiiq34dD1MAcfDXWrV3n1RbDmWhBcAuPdC1EBwxLB/rEmSGVeqb7crka1z3wB5Qq13ZJMwmEyM4QUCyRQCQ6u0AOl0gvyOJVb3V4dFagK+qqpPFFIWH9mfoxbXG2tzXQFe9uVSaLtSE55kumy9922r+AE4TTXsS8gZ1BYOWKxZj7/FMQPfAkR++x2gU0mgVYre3tareuCTnmu/V8CYK0Sgw5+1nIBQs0de/CEj8PokQJibUIiprnmeVAlCXAEv4wRGkYBIcBitInYQx/BPVHl+Pg9i+RVyLiq2VOtHA4126zz2SC4KsekMfG5cuW8eA/vgLI8/VaBDhB6LWi4xXvDgTWrV+Pv/71IXaIzt8pJRZ482En9Do5TMFPQLCVQyqVwh58HjvDoKx8ClLz5mOvFWDXXQhr6B3sb3nVe7CoxkFhWQmF6Wds3y/Dw2+IaOrAIRMnCN5LceiQIZg//wPvM/IcHIFejgAnCL1cgLz6XYtAbm4u5txxJ+rqPPON701t2hIECcUF0PaHU5XFruCpj1zNrAfuJMr7oSnmVRdBqPsKVmka5NaNnCDQKfxTHFL0RibtPTt79mzMuf3PnS2G5+cI9DoEOEHodSLjFe5OBAwGA26bPRv5+QV+f+2JFoQySGVK2PUzmQVBVfEYJJbtxy0I2nNhDbuH/a2omg+zahQUllWcIHQhQSDfFB/O/wD9+vXzu/x5gRyBno4AJwg9XUK8fgFFgA5cvfzKK/j889YeFP1RqchQYPaFrjMIgyY/A7lghqb+Q1ji57IbChJrPpTVL0Cwl8CpyIIl/AGIsigITiMUR5+AKfwhdgahYNdXOFgCLPjVwc8gtHPNsTOy6tu3Lz7/7FPmgIknjsCZhgAnCGeaxHl7vUbg0KFD+NNt2be5oQAAFttJREFUs1FbW+t13o4ykKc/usXw7jvvQK9TQF39IkTduGYrAl17hNjk8nsgKADRDkXNf5mnQLP+eqxfvx5zX3oFNpvdo2iaLc8gvPr6a1CrXA6OHE4HbDYbVEoVnKITTocDMpmcfSbPduSgiP5Px9SlEookamOTJn22O+yQSV2+HuizyzGOhD1D+SiR10TFsdDM9B5ypETud+g9UqmMhX5mDnskUvZOcppE31O9yJueywmOA4KETsoLsFgtrGz3xO1w2vHOm2+36wehIxmc6vfZs2/DnNtv70wRPC9HoNciwAlCrxUdr3h3IvDWW2/jo48/9tilsTd1a+UHQbRCW/EU7OE3w6EeAAhu3wwiIFohM/wOwbgNpvAHAUHmtR+EsWPH4qW58/Dll1/gxx9/Pm2iOS7++Qece8EF0KhUuG3OnFaeFL2RRctnyQsk4eT2NulrOTwfR6C3IsAJQm+VHK93tyJw+PBh3PuX+0DWBH+nEzwp2sugbPgRErGebSlAGgQ4aiDYquGg6466CyBKg1k1PPWkGBYSgtT0dFiaTAgPDUXJkaMs6M3pEu554U/foai4hLmC3rF7T6eJnFKpxJNPPI4ZM2Y2u/z1t9x5eRyBno4AJwg9XUK8fj0CATqLsGHDBjz62GNoaGj0a51OGovBWQeZpRCCoxZOWRQcij7NLpbdFfCUILzx6qsYPWYsiosKcevs2SwewpkQzdEXQVEcgIsvugiPPPIwCy7FE0fgTEWAE4QzVfK83V4jQCRhyZIleObZ51iQIX8lpUKBG669BkqVsrnImDBgzKDqE6I5/rEjHAbj8XgCdA3z9xUrT7lipqA3K1esbI4W+cC9d2H1xs2cIJxEgNOnn4OH/vpXhIWF+UvEvByOQK9EgBOEXik2XulAIUDR5pYu/YXdbKipqfFbNWjV2jKN7C/DP++wQSo5TgYsFgH3vChDUfnxSJ8QPYu0RxaErKwhKC8vw0233sIiMHILQmvxkbXg7KlT8dhjjzZHofSbgHlBHIFeiAAnCL1QaLzKgUWALAnbt+/Aa6+/hr1793V6v7u91mhVAgakuMLvuhNFvd2dL8Jq9z4iYVRkBJITk3C0rBRHjroiZwbpgpA9PJt9rq+txaHiYmRmZjHrSIOhHtGxsbA0WVBVVYH4xER2i0MmkSIoWI+jh49AF6SDPjgYVZVViIiMYOVUVlSyWxkarQalR0sRGxfLvs87mIu09HQWqrmkuASJSYlwOpyor61BaEQEKFwz3WgIDg2FsbGRhXYODQuDobYWUpkc2iAdGg2NUGvUkMqkOHjgIBIS4qHRuqJaHiosRFFxsc+KER4ejltuuRkXnH8+Jwc+o8gznm4IcIJwukmUt6fbECD3y99++y1++PEn0CFGmtR46l0IREREYMiQLNwxZw5SUlJ4vIXeJT5e2y5GgBOELgaYF396I0DWBHLDvGfPHmzctAnbtm1DXl6+y2cATz0OAdrKiYyMQObgTIwePQrZ2dlITEzkhxF7nKR4hXoCApwg9AQp8DqcNgiYzWaYTCbU1Na6DjKK3m8HnDZg9KSGCALkMhnbEtEHBUGtVrPAWDxxBDgCJ0eAEwSuHRwBjgBHgCPAEeAInIAAJwhcKTgCHAGOAEeAI8AR4ASB6wBHgCPAEeAIcAQ4Ah0jwC0IHWPEn+AIcAQ4AhwBjsAZhwAnCGecyHmDOQIcAY4AR4Aj0DECnCB0jBF/giPAEeAIcAQ4AmccApwgnHEi5w3mCHAEOAIcAY5AxwhwgtAxRvwJjgBHgCPAEeAInHEIcIJwxomcN5gjwBHgCHAEOAIdI8AJQscY8Sc4AhwBjgBHgCNwxiHACcIZJ3LeYI4AR4AjwBHgCHSMACcIHWPEn+AIcAQ4AhwBjsAZhwAnCGecyHmDOQIcAY4AR4Aj0DECnCB0jBF/giPAEeAIcAQ4AmccApwgnHEi5w3mCHAEOAIcAY5AxwhwgtAxRvwJjgBHgCPAEeAInHEIcIJwxomcN5gjwBHgCHAEOAIdI8AJQscY8Sc4AhwBjgBHgCNwxiHACcIZJ3LeYI4AR4AjwBHgCHSMACcIHWPEn+AIcAQ4AhwBjsAZhwAnCGecyHmDOQIcAY4AR4Aj0DECnCB0jBF/giPAEeAIcAQ4AmccAr2CIIh2B0STOWDCETRKCDKZ395vdZjRZDPAIdr8VqanBQmQQKcIhVyq8jRLu8+J1iY4DJWAKHaqHJ8yC4AkKAISpdan7CfLZLHZ0Whs8muZ3hSm06ihVPhPz+jdZrMZDQaDN9Xw37OCgODgYCgUik6VKTaZ4ayshGi1dKocXzILggSS6CgIOp0v2ZvzkBwOHz4Mh8PRqXJ8ySyXyxEVFQVdJ9sApxmiwwA4GnypRufzyMIgyEI7VY7VIeKoyQ5HAIYtuUSAXi5BsFICoVOt6L7MPZ4giDY7mtbuhLOitvtQafMmWXwkVOOH+OX9VkcTftj/LMob84EAKClpZoJ+EC7o9yBkEqVPbSJyUP3lYzAXbPUpvz8yqVJHIOLGl/xRFCvDbnfgu982obCkIiBioTqkJ0fj0umjIRH8N3zMf/99FOTl+Q0nbwsaOGgQrrzmGtAk5UsSLRbU//lOWFauCgwZBSBNS0X4T9/5TBJsNhsuvPBCrFmzBmIACLUgCBg2bBiWLFkCrdZHUi3aYS15Ho7KryGK3U9ySHck6jSo+n8OSH0na2/srcNbe+vgDIQcICBGI8WHk2PQJ8i3/uBLH+pMnh5PEJwNJph+2wTR3P2rBzewEo0KmlljISg7txKi8iqNRfhs50MQ4eyM3DqVVyJIcePQlxCmTvCpHHvtEVS8O9tlQQhQIutB7IPfQaIL80sNGk1mfPjtCtQ3mPxSni+F6HUazL7qbGhUndczen99fT1emTsXjY2NvlTHL3nCwsJw5733MkuCL8lZXoGKIcOBAKy83fUVZFKE/boE8szBvjQBJSUlyM7ORlVVlU/5/ZVp9+7dGDzYtzbAYYL5wA1wNu7wV3W8L0eqhar/F5BoB3mf91iO65aXYnVp4KyEZEWYf1Y0JsdpfG5Dd2bs+QTBYITpdyII1u7EpdW7/EkQKowFjCAEOt049GVEaJJ8qoa95rCLIDQEbsCTKDWIeeA7SIPCfWpD20wNRBC+WQ5DY+AGD71OjdlXToNG7R+CUFdXh1fmzYMxgAQhNCwMd91zD4JDQnySk7OsHBWZw3zK669MjCD8shjyrEyfiiwuLsbw4cMDThB27NiBIUN8tIQ6jDAfuB7Oxl0+YeCXTFINVP0XQKL1TQ5Uh2uWlWJtWeD6uEwi4IOzojGVEwS/qAScnCD4B8g2pXCC0BoQThC6RM3ACQLACYKfdIsTBD8B6Xkx3ILgAVbcgtAaJG5B8EBpfHiEWxBOBI1bEHxQpJNk4RYEbkHwVps4QfAAMU4QOEHwQE06/QgnCJwgdFqJTlEAJwicIHirX5wgeIAYJwicIHigJp1+hBMEThA6rUScIJwSQn4GwTsN4wTBA7w4QeAEwQM16fQjnCBwgtBpJeIEgRMEPyoRJwgegMkJAicIHqhJpx/hBIEThE4rEScInCD4UYk4QfAATP8ShMJj1xwD4SXJ1VgBAm4Y+lInrjmSH4Tb+DVHD3THm0c4QWiHIJTTNcfsgDlJYv3lNLnmuHPnTmRlZXmjksef5dccfcOtTS5+zdEvMB4vhPwfNK3cBkd94Jy9SMNDoJmSDUgknW5do7UG/9v3LxgsFYEZ9AQBYap4XDrwSajlQT61x2mqQ+WnD8JWmotAuYOUR6Ygas58CFL/eCSzWG34avF6HK2oCVCTBMRFheLa8ydAJuu8npFgyYPfO2++ibLSUp/k7I9MySkpuOHmm6FWq30qztnQgNrLroT9YG5g5EIe/CIjEb7we0hiYnxqg8FgwNlnn439+/cHxJOiRCJBXFwcVq1axVwu+5REKyyFj8JZtwKiMzA+aQRFLFT9P4Wg8E0O1O6/b6nGV/kNcAbAXyp5SA1VSPDupGhkhvnmxdYn2XUiU4+3IFDbnI0mOAPowEai14KsCP5KBnMF6ixlARksyLd8qCoWQcqITjXHYaiArbIoIG0gG4g8IhGykNhOtaFtZvKiWFPfGJDwElSX8BAdgoP862GttqYGVZUB8ngpCIiMikKIj06S3PJxHC2DIz8PorP7vY+Sm2JpchKkycmd0rUjR47gwIEDAYnFQLEw+vTpg6Qk3xyjuRsu2qohWo9AtAcmtoegiIZEnc5soL6mOosD++qssDu734KrkAoIV0qRqldA6nsTfG26T/l6BUHwqWU8E0eAI8AR4AhwBDgCPiPACYLP0PGMHAGOAEeAI8AROH0R4ATh9JUtbxlHgCPAEeAIcAR8RoATBJ+h4xk5AhwBjgBHgCNw+iLACcLpK1veMo4AR4AjEDAEKJpoYWEhKOR3TEwMu8XhcDig0+mQlpaGmpoaaDQaaLXagNWx7YvLy8vZoVqlUgmqPx1SpVDl9JnCp9NBT7oddPDgQVitVgQFBSE2NhZ5eXlwHjtESzdFEhISekybOlORXksQKisr8euvvzYLZeDAgSykqqeJhLxp0yaMGzeOKUFPSNSBtmzZArqWNHToUFCbcnNz2d/UoVomUtiysjL079+/3arX1taC/qWmpnZ709asWYOxY8dCKpV2+O59+/YhMTGRdbTekLZv3469e/cyXSPs//jjDxw+fBihoaE499xzUVRUxPSJTo2XlJSAsEhJScHo0aOZHHt6okGQBj/SG2oX3ZsvLS3FypUrmZzGjx/fY/qLyWTC4sWL0dTUxCagyZMnQy73z7XXQMmJsF69ejUiIyMZ1iQDmqDCw8PZ58Zjobs3b97MqkjjRGam7+GPu6qdVVVV+POf/8z6xNGjR3HxxRfjL3/5C66//nrWL4YNGwaajLOzszFixIiuqobX5b766qusrsnJyfj5558hk8kwY8YM/Otf/8Lu3bvx0UcfMaLw4IMPYtasWcjJyWEEISIiAkuXLsWUKVNYnxk5cqTX7+6JGXotQSAhbdu2Df/9739x3XXXsUGYhElMjoRLTG/Pnj1MAWkipXvYNHBTwBJisDQA3nzzzbjnnnvYHWGajANNFD744ANGeKgtRF6IFFBdadCjCYYcndBgQaybGO66detw6NAh0DWmP/3pT4ytEyunmO/UKamtN954Y7fqHU34NBA8+uijrLNQHYxGI2PdNBAQxkSCqM709+uvv846pEqlau5sAwYMYBNtfn4+Iw79+vVjE3AgE9X/zTffZPKhAYAGwMsuuwwPP/wwGyiIsC5fvpwRTmqLXq8HDeJElCjcL7X7tttuC7iOdYQhkdS33nqL6c2iRYswc+ZMfPfdd0yW1Ga6z08DYk9INGHSJHTvvfeCrhGSnt1www2sn1CfSU9PZys/0p+1a9eysYDIBMmS+gf9RrIkokH5aeUXCELtxpLI5Pfff49p06ahoaGBkVDSqRUrVuDll1/Gxo0bmS6RDlLdiUBQXyJ50MTbkwgo1fORRx5hOt+3b19mObj77rvx9ddfs77yzTffsDGMJlIa23pKevHFF3H55Zczgk+yoEXOmDFj8MILL7AFwaBBg5h14JlnnmHjAekN/UbE4tlnn2XEgfr/6ZJ6LUFwC+Af//gHnnzySdZxSAEfeOABvP3222ySeu+990CTLg100dHR+PHHH9mATaahUaNGsQF+3rx5+Omnn/DUU091+r52Z5Xi448/ZpM7sWuq40MPPYSMjAw22NGqgiZSIjvEwG+//Xb873//Yx2PyM9NN93ECBMNdrTCpUmruwkC1YWIyhVXXIG5c+cyBn7HHXewgZlWRHa7nU0wROKobhMnTmQrU/qOOhhNSsTC58yZwzrbLbfcgjfeeIPJkuQVyESrnb/+9a+MkNJAbDab2QD397//HU8//TQb9C644AI2INIAQeSUyAOt/Gjios+0Cgk00ekIw5YEgfqFeyVIK1VRFHsUwSGC8Le//Y2t6kg+NIkSsSQ9Ip8DZLqmPkEyolXg559/zvoGrcILCgpwzjnnMAsE9TfSu+eee46R80AkmvRpsUJjGVlDqK/Qd19++SXr01u3bsX06dNZO+l7suZccskljCjQuECyIlLaUxLpCtWNSA9Nuk888QTuu+8+TJgwgY1fNG7TIqinEQSa7M8//3y2YCSCQAsZagvJgEgDkWUa04iI0kKGxjHSG7Je/ec//+EEoacoYFuCQF7CiGnTYEATLa2yf/jhB3z44YeMrZKVgAYImohoYKeVBK08aHChFdOVV17JSEQgU0uCQAMY1YuUkpST2kfsmwaOl156iSkoTcC0eiArA3U8ep5+JzMlraxoJdWdFoRdu3axzkMTPOH++OOPY8GCBYy0kQnuiy++YGSBLB80uBNTpwGcVkokI7Im0IBIAyCZuWkQIbJHvwd6lUEWK2obTUKkJ6+99hpuvfVWRuJopUpp6tSpbAKiRPWn9tEKlcgDDR606iC97MmpJUFYuHAhI6e0arrooosYaSUrnSdbR93RRtIhsh7SgE6DOPUBImGkS2QlIB0kckZWNSKhZJEiixv1GWontau6uhrx8fFsIpg9e3Z3VLvdd1D9Sd/JUjNp0iRmfaqoqGDbhLSFQHq1ZMkStpptSRCICNFKnfqZr94qu6LRRGR+++03RtLo/+eddx4be6nfkEWHLGpE/nsaQaCFGI2rNN6Qxebaa69ldSZdIR3ZsGEDrrnmGnz77bcM908++YRZfEhu1L+5BaErtKkTZbotCDQQ3HnnnUyIZJ4j8w8JzL1aoIGDzN80OdGgR6vBf//732wQIUW96qqrGHMPZHr33XcZEaBtBBocaFIhhaUVKw1ktAdGBIBWD2RBIEWmlTUpMP1N1hLqkPQ8TdLdTRCoHtSxaHvHYrGw1TZZdogg0EqaCBr9RqsdmmxowqWVEQ3w1NFoIqWB4/nnn2crDvpMBIIGlp6wT0l1pdUCEQTSNyJk9DdZENzm3c8++4x9psmKVrd04InIxV133cW+6+mp7RbD/fffzwZCmsDIakIr3ECa4Vvi19KCQKSfJk5aAVI/J1JA/YfGA+rn1DeINJPVkKx0JBuyapHZmPob9SuyfgUykZ7QKpvGJ+o/VF9aKBDJpNUqLWgGDx7M2knnr0gO1GdIB2lbtacl2sYhgkN9n/6ROZ7q6d7KpTGNCHNPIjaEIVlpqW40zpJekRWNSCQlag/1A5IBfUfjGP1OpJNkQToV6K1qf+pBr99iIDOW25UrWQVoYqXVKk2U7r9pH5v+ppUPCZ+ETgpLSkACJV/p7t/9Ca63ZVE9aGCjRKZoGriI7FBav349Y+JkxifGSuZRah/Vm9pEJ4XpWVJY+o7+0WeyLnRXogGOzJzuDkJtoY5E7aBJk8ga1YsGDjLD0/fU2eg7GqBp1UHtpjoTuSCCQytWInc9ZRChNpGc3PKhAaPltgG1kdpPbSLLDw0a9Jn0rTcMHLTypvaRDEi/qG+5+xEN5tRfekoinSH8qb+7saX+QRY06uNUV/rbLS+SHbWLSAPlo++J7FE5RIB6wkFZwpp0xl1/0iGqL/0jUkrtoURjl3uc6Kwr654iT16PnodArycIPQ9SXiOOAEeAI8AR4Aj0fgQ4Qej9MuQt4AhwBDgCHAGOgN8R4ATB75DyAjkCHAGOAEeAI9D7EeAEoffLkLeAI8AR4AhwBDgCfkeAEwS/Q8oL5AhwBDgCHAGOQO9HgBOE3i9D3gKOAEeAI8AR4Aj4HQFOEPwOKS+QI8AR4AhwBDgCvR8BThB6vwx5CzgCHAGOAEeAI+B3BP4P/ebvK31sxsgAAAAASUVORK5CYII=;" vertex="1" parent="1">
                    <mxGeometry x="220" y="110" width="520" height="260" as="geometry"/>
                </mxCell>
            </root>
        </mxGraphModel>
    </diagram>
</mxfile>